<svg xmlns="http://www.w3.org/2000/svg" width="512" height="512" viewBox="0 0 512 512" version="1.1"><path d="M 276.250 115.728 C 278.313 115.944, 281.688 115.944, 283.750 115.728 C 285.813 115.513, 284.125 115.336, 280 115.336 C 275.875 115.336, 274.188 115.513, 276.250 115.728 M 25.635 301.073 L 23 303.145 23 393.073 C 23 481.667, 23.030 483.030, 25 485 C 26.866 486.866, 28.333 487, 46.845 487 C 65.748 487, 66.780 486.900, 68.595 484.896 C 70.404 482.898, 70.525 480.126, 71 430.166 L 71.500 377.540 74.711 375.520 L 77.923 373.500 77.961 363.750 C 77.991 356.300, 77.687 354, 76.674 354 C 75.945 354, 74.394 352.984, 73.228 351.743 C 71.213 349.598, 71.093 348.332, 70.804 326.153 C 70.417 296.437, 72.661 299, 47.024 299 C 29.565 299, 28.088 299.143, 25.635 301.073 M 87.750 325.706 C 88.987 325.944, 91.013 325.944, 92.250 325.706 C 93.487 325.467, 92.475 325.272, 90 325.272 C 87.525 325.272, 86.513 325.467, 87.750 325.706 M 257.318 431.749 C 269.868 431.908, 290.118 431.908, 302.318 431.749 C 314.518 431.590, 304.250 431.460, 279.500 431.460 C 254.750 431.460, 244.768 431.590, 257.318 431.749" stroke="none" fill="#407093" fill-rule="evenodd"/><path d="M 78.365 364.500 C 78.368 370, 78.536 372.122, 78.738 369.216 C 78.941 366.311, 78.939 361.811, 78.734 359.216 C 78.528 356.622, 78.363 359, 78.365 364.500 M 467.080 369.467 C 464.648 370.250, 454.234 374.575, 443.937 379.080 L 425.215 387.270 426.708 390.845 C 429.142 396.668, 428.107 406.690, 424.475 412.484 C 421.774 416.792, 417.725 419.626, 380.500 443.257 C 357.950 457.572, 337.022 470.304, 333.993 471.551 C 321.216 476.812, 318.212 477.001, 247.792 476.983 C 195.812 476.969, 181.159 476.681, 175.921 475.571 C 170.712 474.466, 89.832 445.224, 86.713 443.317 C 86.280 443.053, 86.055 447.200, 86.213 452.535 L 86.500 462.234 125 476.638 C 146.175 484.561, 167.325 492.249, 172 493.724 L 180.500 496.404 240.953 496.772 C 278.707 497.002, 304.991 496.749, 310.953 496.099 C 320.299 495.079, 331.197 492.014, 338.059 488.474 C 339.951 487.498, 373.676 466.316, 413.002 441.404 C 468.919 405.982, 484.931 395.389, 486.462 392.805 C 490.530 385.939, 488.088 374.909, 481.553 370.627 C 478.028 368.317, 472.124 367.844, 467.080 369.467" stroke="none" fill="#ffcbbe" fill-rule="evenodd"/><path d="M 86 338 C 86 348.667, 85.778 350.222, 84 352 C 82.900 353.100, 81.325 354, 80.500 354 C 79.267 354, 79 355.778, 79 364 C 79 371.638, 79.313 374, 80.326 374 C 81.055 374, 82.623 375.035, 83.812 376.299 C 85.921 378.545, 85.978 379.356, 86.236 411.005 L 86.500 443.412 127.910 458.792 C 150.685 467.251, 172.285 474.800, 175.910 475.568 C 181.162 476.682, 195.759 476.969, 247.792 476.983 C 318.212 477.001, 321.216 476.812, 333.993 471.551 C 337.022 470.304, 357.950 457.572, 380.500 443.257 C 417.641 419.679, 421.779 416.785, 424.459 412.509 C 426.711 408.918, 427.515 406.282, 427.820 401.493 C 428.221 395.184, 426.669 388, 424.904 388 C 424.386 388, 401.479 397.900, 374 410 L 324.038 432 279.601 432 C 255.160 432, 234.435 431.720, 233.545 431.379 C 231.722 430.679, 229 425.944, 229 423.473 C 229 422.578, 230.315 420.531, 231.923 418.923 L 234.846 416 274.423 416 L 314 416 313.990 407.250 C 313.982 400.189, 313.530 397.535, 311.645 393.500 C 307.550 384.732, 301.463 379.057, 293 376.120 C 291.075 375.452, 270.150 372.683, 246.500 369.967 C 222.850 367.251, 200.448 364.356, 196.717 363.535 C 186.782 361.346, 176.713 357.030, 159.659 347.649 C 141.756 337.802, 130.455 332.873, 119.500 330.132 C 110.053 327.770, 97.818 326, 90.928 326 L 86 326 86 338" stroke="none" fill="#ffddce" fill-rule="evenodd"/><path d="M 237.229 90.615 C 235.214 91.512, 233 96.589, 233 100.315 C 233 104.570, 236.008 108.531, 240.266 109.881 C 247.308 112.114, 261.119 114.140, 273.112 114.701 C 293.773 115.666, 320.705 111.739, 325.361 107.083 C 328.555 103.890, 328.362 96.083, 325 92.485 C 322.167 89.452, 320.369 89.449, 303.500 92.442 C 291.512 94.569, 268.226 94.562, 257 92.428 C 247.126 90.551, 239.041 89.810, 237.229 90.615" stroke="none" fill="#ffe07d" fill-rule="evenodd"/><path d="M 251.502 18.608 C 243.130 23.051, 235.522 24.047, 228.426 21.629 C 225.796 20.733, 223.436 20, 223.183 20 C 221.855 20, 224.338 31.090, 227.284 38.316 C 232.800 51.845, 246.449 75, 248.908 75 C 251.023 75, 273.085 37.962, 277.221 27.467 L 278.810 23.434 269.521 19.217 C 264.412 16.898, 259.797 15, 259.267 15 C 258.736 15, 255.242 16.624, 251.502 18.608 M 217.422 130.122 C 203.920 141.175, 178.281 167.256, 168.330 180.060 C 146.729 207.854, 131.880 238.059, 126.041 266.083 C 123.293 279.274, 121.870 295.964, 122.627 306.135 L 123.270 314.770 130.658 316.917 C 140.954 319.909, 153.654 325.578, 166 332.693 C 181.504 341.629, 188.028 344.724, 196.042 346.944 C 200.198 348.096, 221.896 351.085, 247.371 354.015 C 271.642 356.807, 293.300 359.562, 295.500 360.137 C 309.973 363.922, 323.434 376.812, 327.708 390.979 C 328.623 394.016, 329.665 396.853, 330.022 397.285 C 330.379 397.717, 333.282 395.467, 336.474 392.285 C 353.127 375.686, 364.516 354.039, 370.257 328.073 C 373.416 313.787, 373.376 285.009, 370.176 269.100 C 361.700 226.971, 339.682 188.133, 303.018 150.644 C 294.490 141.924, 286.384 133.996, 285.006 133.028 C 283.103 131.690, 278.855 130.996, 267.355 130.141 C 250.889 128.918, 241.179 127.200, 232.855 124.036 C 229.910 122.917, 227.465 122.001, 227.422 122.001 C 227.379 122, 222.879 125.655, 217.422 130.122 M 278.229 155.669 C 275.810 156.643, 274 161.899, 274 167.950 C 274 171.278, 273.567 174, 273.038 174 C 269.563 174, 260.262 178.822, 255.708 182.984 C 242.335 195.206, 239.534 215.613, 249.273 229.866 C 252.359 234.383, 264.579 243.039, 270.750 245.080 L 274 246.155 274 275.708 L 274 305.260 269.308 304.731 C 266.624 304.429, 261.239 302.447, 256.727 300.101 C 252.388 297.846, 247.999 296, 246.975 296 C 245.950 296, 243.886 297.054, 242.389 298.342 C 238.918 301.327, 238.733 306.022, 241.950 309.447 C 245.772 313.515, 257.939 318.895, 266.337 320.232 L 274 321.451 274.015 327.475 C 274.032 334.569, 275.513 337.999, 279.354 339.840 C 281.597 340.916, 282.731 340.940, 285.096 339.960 C 289.135 338.287, 289.430 337.608, 290 328.633 L 290.500 320.765 296.403 318.944 C 308.458 315.223, 319.190 304.869, 324.097 292.225 C 325.799 287.838, 326.339 284.280, 326.404 277 C 326.480 268.642, 326.162 266.798, 323.761 261.664 C 318.344 250.080, 312.633 244.996, 298.746 239.398 L 290.500 236.074 290.232 212.537 C 290.084 199.592, 290.140 189, 290.356 189 C 292.012 189, 299.644 192.366, 302.707 194.447 C 309.836 199.291, 317 196.788, 317 189.452 C 317 183.653, 309.167 178.001, 296.092 174.366 L 290 172.672 290 165.909 C 290 159.793, 289.748 158.947, 287.365 157.073 C 284.877 155.115, 281.062 154.529, 278.229 155.669 M 268.894 192.849 C 262.889 196.661, 259.558 203.198, 259.544 211.199 C 259.531 218.009, 261.334 220.932, 268.572 225.844 L 273.500 229.189 273.786 219.041 C 273.943 213.460, 273.943 204.626, 273.786 199.410 L 273.500 189.925 268.894 192.849 M 290 278.561 C 290 298.810, 290.266 304, 291.304 304 C 292.022 304, 294.663 302.697, 297.173 301.105 C 308.209 294.106, 313.394 280.724, 309.552 269.157 C 307.519 263.037, 301.159 256.924, 294.445 254.636 L 290 253.121 290 278.561" stroke="none" fill="#eabc6b" fill-rule="evenodd"/><path d="M 297.500 18.719 C 291.469 21.912, 289.568 22.430, 283.763 22.462 C 280.057 22.483, 277.453 22.645, 277.976 22.821 C 280.116 23.544, 268.904 45.448, 256.897 64 C 253.160 69.775, 250.420 74.819, 250.809 75.208 C 251.198 75.598, 257.138 76.656, 264.008 77.561 C 279.116 79.550, 290.970 79.118, 307.681 75.970 L 319.862 73.675 327.499 60.874 C 331.700 53.834, 336.668 44.345, 338.539 39.787 C 342.042 31.258, 344.622 21.288, 343.592 20.259 C 343.272 19.939, 341.095 20.312, 338.755 21.088 C 336.415 21.865, 331.800 22.479, 328.500 22.453 C 323.542 22.414, 321.301 21.762, 315.599 18.703 C 311.804 16.666, 307.754 15.003, 306.599 15.006 C 305.445 15.010, 301.350 16.681, 297.500 18.719 M 328.500 123.019 C 319.667 127.224, 308.655 129.158, 289 129.957 C 279.375 130.349, 274.191 130.743, 277.480 130.834 L 283.460 131 301.026 148.750 C 339.436 187.562, 361.496 225.956, 370.176 269.100 C 373.376 285.009, 373.416 313.787, 370.257 328.073 C 364.522 354.011, 353.124 375.690, 336.522 392.237 C 333.357 395.392, 330.469 397.790, 330.105 397.565 C 329.530 397.209, 329.862 411.090, 330.445 411.749 C 330.995 412.372, 422.645 371.423, 423.775 370.050 C 424.477 369.197, 427.729 363.100, 431.003 356.500 C 441.014 336.317, 444.742 317.538, 443.685 292.607 C 441.926 251.079, 424.736 211.853, 390.250 170.670 C 381.823 160.606, 380.785 158.139, 383.131 153.755 C 384.145 151.860, 383.536 150.957, 377.228 145.014 C 371 139.145, 369.988 138.535, 368.406 139.693 C 364.565 142.501, 361.804 141.190, 349 130.470 C 342.125 124.715, 336.050 120.041, 335.500 120.085 C 334.950 120.128, 331.800 121.448, 328.500 123.019 M 192.469 152.250 L 186.500 158.500 192.750 152.531 C 196.188 149.249, 199 146.436, 199 146.281 C 199 145.542, 198.013 146.444, 192.469 152.250 M 274.328 167.500 C 274.333 171.350, 274.513 172.802, 274.730 170.728 C 274.946 168.653, 274.943 165.503, 274.722 163.728 C 274.501 161.952, 274.324 163.650, 274.328 167.500 M 274.420 209.500 C 274.419 220.500, 274.565 225.136, 274.745 219.803 C 274.924 214.470, 274.925 205.470, 274.746 199.803 C 274.568 194.136, 274.421 198.500, 274.420 209.500 M 243.232 211 C 243.232 212.925, 243.438 213.713, 243.689 212.750 C 243.941 211.787, 243.941 210.213, 243.689 209.250 C 243.438 208.287, 243.232 209.075, 243.232 211 M 274.234 275.667 C 274.056 297.886, 273.702 304.953, 272.750 305.338 C 271.771 305.733, 271.778 305.859, 272.781 305.921 C 273.486 305.964, 274.281 305.432, 274.547 304.737 C 274.814 304.043, 274.905 290.655, 274.750 274.987 L 274.468 246.500 274.234 275.667 M 274.328 327.500 C 274.333 331.350, 274.513 332.802, 274.730 330.728 C 274.946 328.653, 274.943 325.503, 274.722 323.728 C 274.501 321.952, 274.324 323.650, 274.328 327.500 M 314.310 407.500 C 314.315 410.800, 314.502 412.029, 314.725 410.232 C 314.947 408.435, 314.943 405.735, 314.715 404.232 C 314.486 402.729, 314.304 404.200, 314.310 407.500 M 255.684 416.748 C 266.235 416.910, 283.785 416.911, 294.684 416.749 C 305.583 416.587, 296.950 416.455, 275.500 416.455 C 254.050 416.454, 245.133 416.587, 255.684 416.748" stroke="none" fill="#e8ae4d" fill-rule="evenodd"/><path d="M 246.608 3.405 C 238.781 7.487, 235.351 7.796, 229.141 4.978 C 226.743 3.890, 222.978 3, 220.773 3 C 213.459 3, 207.021 11.926, 207.006 22.090 C 206.991 31.735, 214.997 52.360, 225.425 69.535 C 229.086 75.565, 229.630 77.062, 228.504 77.997 C 227.431 78.887, 225.922 78.145, 221.530 74.568 C 209.922 65.113, 201.590 62.535, 183.551 62.819 C 167.718 63.068, 161.179 61.863, 151.223 56.861 C 146.996 54.737, 142.370 53, 140.943 53 C 135.085 53, 131.736 61.736, 135.971 65.971 C 138.687 68.687, 148.114 73.318, 156.500 76.055 C 162.482 78.008, 165.899 78.371, 180 78.554 C 197.967 78.787, 201.620 79.573, 209.261 84.843 C 213.896 88.040, 217.587 91.747, 216.860 92.474 C 216.606 92.728, 212.146 93.408, 206.949 93.986 C 187.429 96.157, 169.364 102.904, 157.851 112.324 C 151.490 117.528, 144 127.984, 144 131.659 C 144 137.797, 153.043 141.331, 157.029 136.750 C 167.204 125.057, 170.700 121.880, 177.080 118.528 C 185.216 114.252, 199.216 110.506, 210.500 109.585 L 218.500 108.933 215.500 111.216 C 197.929 124.588, 171.368 150.529, 158.029 167.344 C 133.939 197.714, 116.977 232.031, 109.983 264.548 C 108.429 271.775, 107.694 279.565, 107.299 293 L 106.755 311.500 96.378 310.568 L 86 309.635 86 306.184 C 86 297.581, 81.181 289.718, 73.685 286.090 C 69.704 284.162, 67.643 284, 47.152 284 C 22.976 284, 20.262 284.485, 14.658 289.803 C 13.096 291.286, 10.846 294.300, 9.658 296.500 L 7.500 300.500 7.210 390.500 C 7.007 453.424, 7.250 481.854, 8.018 485 C 9.596 491.462, 13.249 496.474, 18.728 499.695 L 23.500 502.500 46.500 502.500 C 68.161 502.500, 69.733 502.374, 73.500 500.342 C 80.962 496.315, 86 488.893, 86 481.925 C 86 479.337, 86.307 478.908, 87.750 479.481 C 109.699 488.203, 168.508 509.246, 174.208 510.417 C 185.207 512.676, 311.156 512.790, 321.685 510.550 C 330.185 508.741, 337.976 506.059, 344.852 502.575 C 348.972 500.487, 444.771 440.209, 487.641 412.730 C 491.568 410.213, 495.942 406.632, 497.361 404.772 C 504.809 395.006, 506.541 382.230, 501.816 371.908 C 493.297 353.301, 475.988 347.841, 454.832 357.086 C 451.165 358.689, 447.934 360, 447.652 360 C 447.371 360, 448.288 357.187, 449.691 353.750 C 453.882 343.484, 457.837 325.971, 459.108 312.049 C 462.499 274.933, 450.997 232.804, 426.930 194.183 C 419.806 182.751, 406.044 164.602, 397.787 155.750 C 391.649 149.170, 388.514 148.395, 384.455 152.455 C 380.188 156.721, 381.081 159.706, 389.596 169.639 C 416.804 201.379, 433.541 233.165, 441.181 267.605 C 443.050 276.032, 443.385 280.690, 443.438 299 C 443.496 319.135, 443.330 321.167, 440.826 331 C 437.744 343.101, 432.784 355.380, 427.142 364.878 L 423.203 371.507 377.313 391.754 C 352.073 402.889, 331.169 412, 330.859 412 C 330.550 412, 330.021 408.512, 329.684 404.250 C 328.494 389.207, 322.261 377.234, 311.254 368.850 C 301.066 361.089, 298.712 360.555, 250.221 354.983 C 226.175 352.220, 204.025 349.475, 201 348.884 C 193.025 347.323, 182.906 343.067, 171.500 336.476 C 156.560 327.843, 142.524 321.223, 133 318.319 C 128.325 316.893, 123.895 315.001, 123.155 314.113 C 121.035 311.569, 122.258 280.287, 124.973 267.631 C 135.841 216.965, 169.650 167.739, 223.175 124.646 L 227.849 120.883 231.675 122.818 C 241.417 127.747, 263.897 130.490, 288 129.691 C 308.128 129.024, 321.411 126.654, 330.110 122.176 L 335.721 119.289 340.110 122.855 C 342.525 124.817, 348.453 129.702, 353.284 133.711 C 358.115 137.720, 362.840 140.998, 363.784 140.996 C 364.728 140.994, 366.962 140.101, 368.750 139.011 C 371.398 137.396, 372 136.395, 372 133.605 C 372 129.629, 369.422 126.898, 353.613 114.127 L 343.727 106.140 343.556 99.820 C 343.369 92.911, 340.836 86.144, 336.884 82 L 334.500 79.500 340.819 69 C 348.140 56.835, 352.959 47.001, 356.046 37.925 C 364.033 14.447, 354.176 -2.708, 337.141 5.022 C 331.112 7.758, 327.904 7.513, 320.709 3.769 C 315.959 1.297, 312.914 0.448, 307.753 0.156 C 301.658 -0.189, 300.273 0.123, 293.400 3.387 C 289.216 5.374, 284.496 7, 282.911 7 C 281.326 7, 277.249 5.543, 273.850 3.761 C 268.959 1.197, 266.195 0.448, 260.586 0.166 C 254.050 -0.162, 252.965 0.090, 246.608 3.405 M 249.902 18.671 C 244.457 21.584, 242.274 22.195, 237.402 22.174 C 234.156 22.159, 229.568 21.452, 227.207 20.603 C 221.736 18.634, 221.362 19.438, 223.489 28.612 C 226.469 41.467, 243.550 73.118, 248.529 75.011 C 253.163 76.773, 271.986 79, 282.245 79 C 292.327 79, 318.430 75.027, 320.126 73.235 C 321.630 71.644, 331.928 54.101, 335.360 47.283 C 339.808 38.444, 344 26.214, 344 22.074 C 344 18.473, 344.287 18.563, 339.372 20.622 C 337.230 21.519, 332.757 22.245, 329.362 22.247 C 324.277 22.249, 322.003 21.628, 316.111 18.625 C 312.198 16.631, 307.861 15, 306.472 15 C 305.082 15, 300.832 16.631, 297.026 18.625 C 291.129 21.714, 289.141 22.250, 283.582 22.250 C 278.155 22.250, 275.777 21.641, 269.426 18.625 C 265.227 16.631, 260.602 15.032, 259.146 15.071 C 257.691 15.110, 253.531 16.730, 249.902 18.671 M 237.303 90.197 C 234.116 91.737, 231.660 97.516, 232.360 101.828 C 233.288 107.547, 236.362 109.731, 246.642 111.975 C 267.512 116.530, 291.709 116.689, 312.529 112.408 C 325.687 109.703, 328 107.771, 328 99.489 C 328 95.647, 327.474 94.320, 324.952 91.798 C 321.545 88.391, 322.043 88.395, 305.500 91.645 C 292.095 94.279, 265.888 94.040, 252.343 91.160 C 240.977 88.743, 240.390 88.705, 237.303 90.197 M 277.441 157.417 C 275.903 158.540, 275.396 160.434, 275 166.539 L 274.500 174.245 268.277 176.150 C 259.861 178.727, 251.450 186.422, 247.433 195.218 C 244.966 200.621, 244.560 202.759, 244.532 210.500 C 244.504 218.379, 244.850 220.213, 247.311 225.224 C 250.760 232.249, 255.853 236.726, 266.685 242.258 L 274.991 246.500 274.995 276.364 L 275 306.227 270.250 305.577 C 267.637 305.220, 261.831 303.144, 257.348 300.964 C 247.954 296.396, 245.197 296.097, 242.174 299.314 C 239.402 302.266, 239.402 305.981, 242.176 308.959 C 244.871 311.852, 259.181 318.632, 264.250 319.418 C 266.313 319.738, 269.575 320.245, 271.500 320.545 L 275 321.091 275 328.091 C 275 334.190, 275.316 335.407, 277.455 337.545 C 280.395 340.486, 283.929 340.688, 287.127 338.098 C 289.165 336.448, 289.524 335.144, 289.837 328.249 L 290.198 320.303 295.817 318.532 C 313.566 312.937, 326 295.916, 326 277.213 C 326 259.369, 316.735 246.881, 298.250 239.812 L 290 236.656 290 212.703 L 290 188.750 293.250 189.394 C 295.038 189.749, 299.043 191.605, 302.151 193.519 C 308.581 197.480, 310.814 197.781, 314.089 195.129 C 317.608 192.280, 317.295 186.476, 313.450 183.273 C 309.538 180.014, 301.429 176.241, 295.111 174.741 L 290 173.527 290 167.398 C 290 159.733, 287.582 156, 282.619 156 C 280.839 156, 278.509 156.638, 277.441 157.417 M 268.385 192.227 C 262.199 197, 259.053 203.241, 259.022 210.800 C 258.988 219.015, 262.336 223.646, 271.750 228.408 L 275 230.051 275 210.026 C 275 191.149, 274.893 190, 273.135 190 C 272.109 190, 269.972 191.002, 268.385 192.227 M 290 279 C 290 293.300, 290.337 304.996, 290.750 304.991 C 293.349 304.958, 302.524 298.251, 305.411 294.274 C 313.603 282.984, 313.069 267.658, 304.212 259.881 C 300.668 256.770, 293.666 253.064, 291.250 253.022 C 290.281 253.005, 290 258.855, 290 279 M 25.635 301.073 L 23 303.145 23 393.073 C 23 481.667, 23.030 483.030, 25 485 C 26.866 486.866, 28.333 487, 46.927 487 L 66.855 487 68.927 484.365 C 70.964 481.777, 71 480.821, 71 429.938 L 71 378.145 73.635 376.073 C 77.065 373.374, 79.257 373.457, 82.694 376.413 L 85.500 378.825 85.781 420.753 L 86.062 462.680 129.384 478.785 C 153.211 487.643, 175.584 495.387, 179.103 495.995 C 183.467 496.749, 206.632 497.001, 252 496.789 L 318.500 496.478 325.500 494.125 C 329.350 492.831, 334.750 490.635, 337.500 489.245 C 344.046 485.937, 480.794 399.392, 483.845 396.626 C 491.646 389.554, 490.413 375.866, 481.442 369.953 C 477.117 367.102, 470.255 367.427, 461.667 370.890 C 457.725 372.479, 425.290 386.654, 389.589 402.390 L 324.678 431 279.339 431 C 235.333 431, 233.941 430.941, 232 429 C 229.302 426.302, 229.444 421.871, 232.314 419.174 C 234.611 417.016, 234.931 417, 274.814 417 L 315 417 315 409.182 C 315 399.604, 312.985 392.455, 308.691 386.794 C 304.886 381.779, 297.362 376.437, 292.157 375.058 C 290.146 374.524, 268.700 371.806, 244.500 369.017 C 218.273 365.994, 197.302 363.086, 192.583 361.818 C 185.096 359.806, 174.360 354.738, 149.767 341.604 C 131.566 331.885, 115.125 327.071, 94.750 325.497 L 86 324.820 86 335.261 C 86 347.205, 84.944 351.249, 81.403 352.862 C 77.702 354.549, 75.593 354.260, 73.228 351.743 C 71.213 349.598, 71.093 348.332, 70.804 326.153 C 70.417 296.437, 72.661 299, 47.024 299 C 29.565 299, 28.088 299.143, 25.635 301.073" stroke="none" fill="#0f161b" fill-rule="evenodd"/></svg>