<?xml version="1.0" encoding="UTF-8"?>
<!DOCTYPE svg PUBLIC "-//W3C//DTD SVG 1.1//EN" "http://www.w3.org/Graphics/SVG/1.1/DTD/svg11.dtd">
<svg xmlns="http://www.w3.org/2000/svg" version="1.1" width="512px" height="512px" style="shape-rendering:geometricPrecision; text-rendering:geometricPrecision; image-rendering:optimizeQuality; fill-rule:evenodd; clip-rule:evenodd" xmlns:xlink="http://www.w3.org/1999/xlink">
<g><path style="opacity:0.992" fill="#010102" d="M 511.5,464.5 C 511.5,469.833 511.5,475.167 511.5,480.5C 507.684,490.481 500.684,497.315 490.5,501C 333.833,501.667 177.167,501.667 20.5,501C 10.3158,497.315 3.31579,490.481 -0.5,480.5C -0.5,475.167 -0.5,469.833 -0.5,464.5C 3.84839,452.823 12.1817,445.823 24.5,443.5C 24.0441,432.064 24.5441,420.731 26,409.5C 27.5793,407.959 29.4127,406.792 31.5,406C 41.1609,405.5 50.8276,405.334 60.5,405.5C 60.5,357.5 60.5,309.5 60.5,261.5C 54.1579,261.666 47.8246,261.5 41.5,261C 33.7804,259.614 28.9471,255.114 27,247.5C 26.5002,238.84 26.3336,230.173 26.5,221.5C 21.8215,221.666 17.1548,221.499 12.5,221C 9.57192,219.74 7.73859,217.573 7,214.5C 6.33333,199.5 6.33333,184.5 7,169.5C 9.6294,164.436 13.7961,162.436 19.5,163.5C 19.0592,154.724 19.5592,146.058 21,137.5C 36.4065,123.882 51.9065,110.382 67.5,97C 72.0911,96.0577 76.4245,96.5577 80.5,98.5C 81.158,101.156 81.8246,103.822 82.5,106.5C 82.423,108.299 81.923,109.966 81,111.5C 67.6487,123.686 54.1487,135.686 40.5,147.5C 39.5052,152.792 39.1718,158.125 39.5,163.5C 77.8333,163.5 116.167,163.5 154.5,163.5C 148.314,112.596 167.647,75.0962 212.5,51C 250.672,35.0371 286.339,39.3704 319.5,64C 350.082,90.2316 362.415,123.398 356.5,163.5C 392.833,163.5 429.167,163.5 465.5,163.5C 465.666,158.156 465.499,152.823 465,147.5C 419.833,108.333 374.667,69.1667 329.5,30C 278.167,29.3333 226.833,29.3333 175.5,30C 162.167,41.6667 148.833,53.3333 135.5,65C 130.172,67.5017 125.506,66.6683 121.5,62.5C 118.781,58.1113 118.948,53.7779 122,49.5C 137.167,36.3333 152.333,23.1667 167.5,10C 224.167,9.33333 280.833,9.33333 337.5,10C 386.333,52.1667 435.167,94.3333 484,136.5C 484.973,138.392 485.64,140.392 486,142.5C 486.5,149.492 486.666,156.492 486.5,163.5C 491.179,163.334 495.845,163.501 500.5,164C 502.286,164.785 503.786,165.951 505,167.5C 506.138,175.735 506.638,184.069 506.5,192.5C 506.638,200.931 506.138,209.265 505,217.5C 503.786,219.049 502.286,220.215 500.5,221C 496.179,221.499 491.846,221.666 487.5,221.5C 487.666,229.174 487.5,236.841 487,244.5C 485.973,253.409 481.14,258.909 472.5,261C 466.175,261.5 459.842,261.666 453.5,261.5C 453.5,309.5 453.5,357.5 453.5,405.5C 462.173,405.334 470.84,405.5 479.5,406C 482.583,406.786 484.749,408.619 486,411.5C 486.5,422.161 486.667,432.828 486.5,443.5C 498.818,445.823 507.152,452.823 511.5,464.5 Z"/></g>
<g><path style="opacity:0.999" fill="#5fa3fd" d="M 80.5,98.5 C 85.1667,94.5 89.8333,90.5 94.5,86.5C 103.708,92.9002 110.041,90.7336 113.5,80C 112.907,77.3173 111.907,74.8173 110.5,72.5C 114.192,69.1383 117.859,65.8049 121.5,62.5C 125.506,66.6683 130.172,67.5017 135.5,65C 148.833,53.3333 162.167,41.6667 175.5,30C 226.833,29.3333 278.167,29.3333 329.5,30C 374.667,69.1667 419.833,108.333 465,147.5C 465.499,152.823 465.666,158.156 465.5,163.5C 429.167,163.5 392.833,163.5 356.5,163.5C 362.415,123.398 350.082,90.2316 319.5,64C 286.339,39.3704 250.672,35.0371 212.5,51C 167.647,75.0962 148.314,112.596 154.5,163.5C 116.167,163.5 77.8333,163.5 39.5,163.5C 39.1718,158.125 39.5052,152.792 40.5,147.5C 54.1487,135.686 67.6487,123.686 81,111.5C 81.923,109.966 82.423,108.299 82.5,106.5C 81.8246,103.822 81.158,101.156 80.5,98.5 Z"/></g>
<g><path style="opacity:1" fill="#fcbf59" d="M 245.5,61.5 C 285.62,59.6342 314.453,76.6342 332,112.5C 345.586,154.365 334.753,188.199 299.5,214C 260.737,234.87 225.571,230.037 194,199.5C 172.569,173.421 167.569,144.421 179,112.5C 192.451,84.0359 214.618,67.0359 245.5,61.5 Z"/></g>
<g><path style="opacity:0.937" fill="#040508" d="M 110.5,72.5 C 111.907,74.8173 112.907,77.3173 113.5,80C 110.041,90.7336 103.708,92.9002 94.5,86.5C 90.3969,77.3729 93.2302,71.7063 103,69.5C 105.956,69.568 108.456,70.568 110.5,72.5 Z"/></g>
<g><path style="opacity:1" fill="#040301" d="M 246.5,201.5 C 247.103,196.381 246.436,191.715 244.5,187.5C 235.129,185.283 228.296,179.95 224,171.5C 223.095,161.212 227.595,157.379 237.5,160C 243.518,168.673 251.518,171.339 261.5,168C 266.364,163.965 266.698,159.632 262.5,155C 252.838,152.585 243.505,149.251 234.5,145C 223.37,134.347 221.537,122.18 229,108.5C 233.639,103.186 239.305,99.5189 246,97.5C 246.333,92.8333 246.667,88.1667 247,83.5C 251.24,77.7042 256.24,77.0375 262,81.5C 262.419,82.6721 263.085,83.6721 264,84.5C 264.172,89.2018 264.672,93.8685 265.5,98.5C 273.154,99.9055 278.987,103.905 283,110.5C 284.212,117.444 281.379,121.444 274.5,122.5C 269.759,120.945 265.093,119.111 260.5,117C 257.167,116.333 253.833,116.333 250.5,117C 246.443,118.947 244.943,122.114 246,126.5C 247.938,129.106 250.438,130.939 253.5,132C 262.655,133.121 271.322,135.788 279.5,140C 287.072,147.281 289.572,156.114 287,166.5C 283.83,178.17 276.33,185.17 264.5,187.5C 264.666,192.179 264.499,196.845 264,201.5C 260.265,209.083 254.932,210.417 248,205.5C 247.209,204.255 246.709,202.922 246.5,201.5 Z"/></g>
<g><path style="opacity:1" fill="#a9bfc0" d="M 27.5,183.5 C 72.1716,183.167 116.838,183.5 161.5,184.5C 163.757,190.076 166.424,195.409 169.5,200.5C 122.167,200.5 74.8333,200.5 27.5,200.5C 27.5,194.833 27.5,189.167 27.5,183.5 Z"/></g>
<g><path style="opacity:1" fill="#a9bfc0" d="M 485.5,183.5 C 485.5,189.167 485.5,194.833 485.5,200.5C 437.488,201.162 389.822,200.495 342.5,198.5C 345.347,194.139 347.681,189.472 349.5,184.5C 394.828,183.5 440.162,183.167 485.5,183.5 Z"/></g>
<g><path style="opacity:1" fill="#6a5025" d="M 244.5,187.5 C 246.436,191.715 247.103,196.381 246.5,201.5C 245.784,196.936 245.117,192.269 244.5,187.5 Z"/></g>
<g><path style="opacity:1" fill="#839494" d="M 27.5,183.5 C 27.5,189.167 27.5,194.833 27.5,200.5C 74.8333,200.5 122.167,200.5 169.5,200.5C 122.572,201.5 74.9053,201.833 26.5,201.5C 26.1771,195.31 26.5104,189.31 27.5,183.5 Z"/></g>
<g><path style="opacity:1" fill="#849696" d="M 485.5,183.5 C 486.49,189.31 486.823,195.31 486.5,201.5C 437.832,201.667 389.166,201.5 340.5,201C 341.066,200.005 341.733,199.172 342.5,198.5C 389.822,200.495 437.488,201.162 485.5,200.5C 485.5,194.833 485.5,189.167 485.5,183.5 Z"/></g>
<g><path style="opacity:1" fill="#fec159" d="M 47.5,221.5 C 77.1667,221.5 106.833,221.5 136.5,221.5C 136.5,227.833 136.5,234.167 136.5,240.5C 106.833,240.5 77.1667,240.5 47.5,240.5C 47.5,234.167 47.5,227.833 47.5,221.5 Z"/></g>
<g><path style="opacity:1" fill="#eef2f2" d="M 182.5,405.5 C 162.833,405.5 143.167,405.5 123.5,405.5C 123.5,357.167 123.5,308.833 123.5,260.5C 130.175,260.666 136.842,260.5 143.5,260C 150.333,258.5 154.5,254.333 156,247.5C 156.5,238.84 156.666,230.173 156.5,221.5C 167.505,221.333 178.505,221.5 189.5,222C 220.037,246.741 254.037,252.741 291.5,240C 302.794,236.025 312.794,230.025 321.5,222C 333.162,221.5 344.829,221.333 356.5,221.5C 356.334,229.507 356.5,237.507 357,245.5C 358.236,252.402 362.069,257.235 368.5,260C 375.826,260.5 383.159,260.666 390.5,260.5C 390.5,309.167 390.5,357.833 390.5,406.5C 372.167,406.5 353.833,406.5 335.5,406.5C 335.99,360.415 335.49,314.415 334,268.5C 332.363,266.19 330.196,264.69 327.5,264C 281.5,263.333 235.5,263.333 189.5,264C 186.417,264.786 184.251,266.619 183,269.5C 182.5,314.832 182.333,360.165 182.5,405.5 Z"/></g>
<g><path style="opacity:1" fill="#fec159" d="M 377.5,221.5 C 407.167,221.5 436.833,221.5 466.5,221.5C 466.5,227.833 466.5,234.167 466.5,240.5C 436.833,240.5 407.167,240.5 377.5,240.5C 377.5,234.167 377.5,227.833 377.5,221.5 Z"/></g>
<g><path style="opacity:1" fill="#4f3b1c" d="M 377.5,221.5 C 377.5,227.833 377.5,234.167 377.5,240.5C 407.167,240.5 436.833,240.5 466.5,240.5C 436.671,241.498 406.671,241.831 376.5,241.5C 376.176,234.646 376.509,227.979 377.5,221.5 Z"/></g>
<g><path style="opacity:1" fill="#99825e" d="M 80.5,260.5 C 88.1667,260.5 95.8333,260.5 103.5,260.5C 103.5,309.167 103.5,357.833 103.5,406.5C 95.8333,406.5 88.1667,406.5 80.5,406.5C 80.5,357.833 80.5,309.167 80.5,260.5 Z"/></g>
<g><path style="opacity:1" fill="#fed89d" d="M 81.5,261.5 C 88.5,261.5 95.5,261.5 102.5,261.5C 102.5,309.5 102.5,357.5 102.5,405.5C 95.5,405.5 88.5,405.5 81.5,405.5C 81.5,357.5 81.5,309.5 81.5,261.5 Z"/></g>
<g><path style="opacity:1" fill="#cfaf80" d="M 432.5,260.5 C 432.5,260.833 432.5,261.167 432.5,261.5C 425.5,261.5 418.5,261.5 411.5,261.5C 411.5,309.5 411.5,357.5 411.5,405.5C 411.167,405.5 410.833,405.5 410.5,405.5C 410.5,357.167 410.5,308.833 410.5,260.5C 417.833,260.5 425.167,260.5 432.5,260.5 Z"/></g>
<g><path style="opacity:1" fill="#fed89d" d="M 432.5,261.5 C 432.5,309.5 432.5,357.5 432.5,405.5C 425.5,405.5 418.5,405.5 411.5,405.5C 411.5,357.5 411.5,309.5 411.5,261.5C 418.5,261.5 425.5,261.5 432.5,261.5 Z"/></g>
<g><path style="opacity:1" fill="#6c5c43" d="M 432.5,260.5 C 433.499,308.997 433.832,357.664 433.5,406.5C 425.648,406.825 417.982,406.492 410.5,405.5C 410.833,405.5 411.167,405.5 411.5,405.5C 418.5,405.5 425.5,405.5 432.5,405.5C 432.5,357.5 432.5,309.5 432.5,261.5C 432.5,261.167 432.5,260.833 432.5,260.5 Z"/></g>
<g><path style="opacity:1" fill="#9ac5fe" d="M 248.5,283.5 C 248.5,324.167 248.5,364.833 248.5,405.5C 233.167,405.5 217.833,405.5 202.5,405.5C 202.5,364.833 202.5,324.167 202.5,283.5C 217.833,283.5 233.167,283.5 248.5,283.5 Z"/></g>
<g><path style="opacity:1" fill="#617ca0" d="M 269.5,283.5 C 269.5,324.167 269.5,364.833 269.5,405.5C 284.833,405.5 300.167,405.5 315.5,405.5C 300.009,406.496 284.342,406.83 268.5,406.5C 268.168,365.33 268.501,324.33 269.5,283.5 Z"/></g>
<g><path style="opacity:1" fill="#9ac5fd" d="M 269.5,283.5 C 284.833,283.5 300.167,283.5 315.5,283.5C 315.5,324.167 315.5,364.833 315.5,405.5C 300.167,405.5 284.833,405.5 269.5,405.5C 269.5,364.833 269.5,324.167 269.5,283.5 Z"/></g>
<g><path style="opacity:1" fill="#050608" d="M 222.5,331.5 C 233.176,331.328 237.343,336.328 235,346.5C 228.471,353.493 222.471,353.159 217,345.5C 215.268,339.314 217.101,334.647 222.5,331.5 Z"/></g>
<g><path style="opacity:1" fill="#050608" d="M 287.5,331.5 C 298.803,330.825 302.969,335.825 300,346.5C 296.534,351.442 292.034,352.609 286.5,350C 279.612,343.397 279.946,337.23 287.5,331.5 Z"/></g>
<g><path style="opacity:1" fill="#7c7f7f" d="M 123.5,260.5 C 123.5,308.833 123.5,357.167 123.5,405.5C 143.167,405.5 162.833,405.5 182.5,405.5C 162.674,406.497 142.674,406.83 122.5,406.5C 122.168,357.664 122.501,308.997 123.5,260.5 Z"/></g>
<g><path style="opacity:1" fill="#4c627e" d="M 248.5,283.5 C 249.499,324.33 249.832,365.33 249.5,406.5C 233.658,406.83 217.991,406.496 202.5,405.5C 217.833,405.5 233.167,405.5 248.5,405.5C 248.5,364.833 248.5,324.167 248.5,283.5 Z"/></g>
<g><path style="opacity:1" fill="#5fa3fe" d="M 44.5,426.5 C 185.167,426.5 325.833,426.5 466.5,426.5C 466.5,432.167 466.5,437.833 466.5,443.5C 325.833,443.5 185.167,443.5 44.5,443.5C 44.5,437.833 44.5,432.167 44.5,426.5 Z"/></g>
<g><path style="opacity:1" fill="#a6bcbd" d="M 25.5,463.5 C 178.5,463.333 331.5,463.5 484.5,464C 491.16,466.49 492.993,470.99 490,477.5C 488.681,479.487 486.848,480.654 484.5,481C 331.5,481.667 178.5,481.667 25.5,481C 17.5548,475.17 17.5548,469.336 25.5,463.5 Z"/></g>
</svg>
