<?xml version="1.0" standalone="no"?>
<!DOCTYPE svg PUBLIC "-//W3C//DTD SVG 20010904//EN"
 "http://www.w3.org/TR/2001/REC-SVG-20010904/DTD/svg10.dtd">
<svg version="1.0" xmlns="http://www.w3.org/2000/svg"
 width="512.000000pt" height="512.000000pt" viewBox="0 0 512.000000 512.000000"
 preserveAspectRatio="xMidYMid meet">

<g transform="translate(0.000000,512.000000) scale(0.100000,-0.100000)"
fill="#000000" stroke="none">
<path d="M2600 4514 c-369 -41 -655 -201 -865 -484 -59 -80 -148 -261 -171
-349 -10 -36 -18 -67 -19 -68 -1 -2 -39 13 -85 33 -160 67 -224 79 -420 78
-146 0 -188 -4 -252 -22 -447 -123 -758 -503 -785 -957 -10 -178 35 -391 109
-515 66 -109 179 -166 313 -158 126 8 221 72 277 185 46 95 50 171 12 278 -71
204 -3 390 174 477 60 30 75 33 157 33 82 0 97 -3 157 -33 129 -63 201 -178
201 -322 0 -110 -27 -170 -119 -272 -127 -139 -183 -255 -206 -420 -19 -143 9
-273 97 -455 49 -100 92 -144 181 -185 68 -32 198 -32 266 -1 114 52 197 169
206 291 4 67 -6 108 -59 238 -12 31 -11 33 39 91 60 68 67 105 29 141 -37 35
-71 28 -126 -23 -114 -107 -128 -166 -71 -294 41 -95 47 -139 26 -196 -28 -73
-106 -125 -186 -125 -36 1 -101 33 -132 66 -37 40 -105 215 -118 302 -16 117
11 251 73 352 12 19 44 60 73 90 78 83 132 167 154 237 59 191 18 370 -116
513 -201 213 -531 216 -732 6 -143 -149 -184 -340 -117 -536 45 -128 16 -223
-80 -270 -99 -48 -211 -8 -258 92 -50 106 -71 210 -70 358 0 158 20 246 83
378 50 104 88 161 164 241 181 189 418 282 689 268 131 -6 226 -31 344 -88
l82 -39 0 -82 c-1 -94 18 -160 62 -224 59 -87 160 -149 258 -161 l51 -6 15
-51 c42 -141 40 -333 -4 -489 -11 -38 -17 -76 -14 -85 12 -33 36 -52 68 -52
54 0 73 25 101 135 23 86 27 121 27 250 1 139 -8 207 -39 306 -3 12 9 25 39
42 104 61 165 167 179 311 10 106 28 166 67 227 115 181 339 246 528 155 207
-101 292 -342 195 -551 -46 -98 -115 -160 -238 -214 -212 -95 -340 -210 -424
-385 -68 -141 -82 -216 -78 -412 3 -148 5 -163 30 -216 35 -76 104 -142 186
-181 59 -28 77 -32 152 -31 74 0 94 4 152 31 81 38 146 102 185 181 25 51 28
70 32 174 2 72 8 121 15 127 6 5 39 20 72 35 288 120 524 371 639 679 23 62
97 129 173 157 80 30 204 25 282 -11 199 -93 267 -346 142 -529 -69 -101 -135
-133 -351 -174 -148 -27 -306 -121 -398 -235 -100 -124 -179 -352 -171 -487 8
-125 72 -220 186 -276 60 -30 76 -33 152 -33 101 0 154 20 225 86 59 54 89
107 110 190 9 36 20 70 24 77 3 6 40 16 81 23 214 33 406 128 567 282 237 227
356 561 314 882 -16 122 -74 289 -133 388 -55 93 -88 127 -124 127 -30 0 -74
-41 -74 -70 0 -11 24 -60 53 -109 198 -328 173 -728 -63 -1026 -140 -175 -370
-303 -595 -330 -119 -14 -149 -42 -188 -177 -14 -47 -30 -94 -35 -104 -26 -49
-104 -94 -162 -94 -95 0 -190 93 -190 185 0 52 46 207 82 279 68 135 228 251
380 276 150 24 179 32 240 62 81 40 195 153 231 228 75 155 75 307 2 456 -89
182 -255 285 -460 286 -71 1 -105 -5 -162 -25 l-73 -25 0 122 c-1 66 -7 154
-14 194 -7 40 -9 75 -5 77 25 16 167 35 259 35 166 0 314 -39 443 -115 69 -41
99 -44 132 -10 55 55 21 106 -118 173 -220 108 -484 137 -711 77 -32 -9 -60
-14 -61 -13 -1 2 -24 46 -52 100 -169 323 -472 550 -817 613 -87 15 -239 25
-296 19z"/>
<path d="M2549 1567 c-98 -41 -160 -97 -206 -187 -25 -50 -28 -65 -28 -160 0
-93 3 -112 27 -162 70 -149 243 -239 400 -208 124 24 220 97 275 208 25 51 28
68 28 157 0 93 -2 105 -32 166 -39 79 -102 140 -181 177 -82 38 -204 42 -283
9z"/>
<path d="M1719 1277 c-182 -52 -290 -231 -244 -409 40 -160 168 -260 330 -260
162 0 290 100 331 261 50 199 -99 401 -308 416 -36 3 -82 -1 -109 -8z m186
-172 c129 -75 111 -282 -28 -334 -36 -14 -108 -14 -144 0 -76 28 -132 132
-114 211 31 135 167 193 286 123z"/>
<path d="M3493 1276 c-104 -34 -176 -98 -222 -196 -20 -44 -25 -70 -26 -135 0
-71 4 -88 33 -147 60 -123 169 -190 308 -191 124 -1 241 72 302 188 24 44 27
61 27 150 0 112 -15 157 -80 233 -74 86 -237 133 -342 98z m177 -161 c14 -7
37 -26 52 -42 100 -105 35 -295 -106 -310 -66 -8 -112 4 -152 39 -48 42 -67
83 -67 144 0 140 148 232 273 169z"/>
</g>
</svg>
