<?xml version="1.0" encoding="UTF-8"?>
<!DOCTYPE svg PUBLIC "-//W3C//DTD SVG 1.1//EN" "http://www.w3.org/Graphics/SVG/1.1/DTD/svg11.dtd">
<svg xmlns="http://www.w3.org/2000/svg" version="1.1" width="512px" height="512px" style="shape-rendering:geometricPrecision; text-rendering:geometricPrecision; image-rendering:optimizeQuality; fill-rule:evenodd; clip-rule:evenodd" xmlns:xlink="http://www.w3.org/1999/xlink">
<g><path style="opacity:0.969" fill="#020201" d="M 251.5,-0.5 C 256.5,-0.5 261.5,-0.5 266.5,-0.5C 271.651,2.48768 277.151,4.82102 283,6.5C 288.511,4.79583 293.677,2.4625 298.5,-0.5C 303.5,-0.5 308.5,-0.5 313.5,-0.5C 318.459,2.22822 323.625,4.56156 329,6.5C 351.406,-2.45098 361.073,5.21569 358,29.5C 352.834,47.164 345,63.4974 334.5,78.5C 341.908,85.9778 344.575,94.8111 342.5,105C 351.957,112.122 361.124,119.622 370,127.5C 371.735,130.79 371.901,134.123 370.5,137.5C 367.206,140.658 363.539,141.158 359.5,139C 351.312,131.978 342.979,125.144 334.5,118.5C 329.235,122.647 323.235,125.147 316.5,126C 306.303,128.4 295.97,129.566 285.5,129.5C 272.075,129.971 258.741,129.138 245.5,127C 239.124,125.744 233.124,123.577 227.5,120.5C 195.885,143.943 169.718,172.276 149,205.5C 128.013,239.276 119.179,275.943 122.5,315.5C 130.087,316.751 137.42,318.917 144.5,322C 160.888,330.861 177.555,339.194 194.5,347C 223.747,351.225 253.081,354.892 282.5,358C 307.614,359.957 322.948,373.124 328.5,397.5C 328.173,402.544 328.506,407.544 329.5,412.5C 330.107,412.376 330.44,412.043 330.5,411.5C 361.179,398.104 391.846,384.604 422.5,371C 440.406,343.105 447.239,312.605 443,279.5C 434.866,234.228 414.866,195.228 383,162.5C 381.066,158.427 381.233,154.427 383.5,150.5C 386.913,149.013 390.247,149.18 393.5,151C 428.338,186.172 449.838,228.339 458,277.5C 461.887,305.822 458.054,332.989 446.5,359C 452.12,357.235 457.787,355.235 463.5,353C 484.508,349.166 497.841,357.5 503.5,378C 505.87,392.593 500.87,403.926 488.5,412C 441.5,441.667 394.5,471.333 347.5,501C 337.842,505.829 327.842,509.329 317.5,511.5C 271.167,511.5 224.833,511.5 178.5,511.5C 147.398,501.63 116.565,490.63 86,478.5C 85.4149,490.88 79.2483,498.713 67.5,502C 53.5,502.667 39.5,502.667 25.5,502C 16.9458,500.445 11.1125,495.612 8,487.5C 6.84795,456.046 6.34795,424.546 6.5,393C 6.35168,361.129 6.85168,329.295 8,297.5C 10.5936,290.572 15.4269,286.072 22.5,284C 38.1667,283.333 53.8333,283.333 69.5,284C 81.5309,288.217 86.8642,296.717 85.5,309.5C 92.5097,309.668 99.5097,310.001 106.5,310.5C 104.421,273.147 112.588,238.147 131,205.5C 152.88,167.652 181.38,135.485 216.5,109C 198.523,108.771 182.19,113.771 167.5,124C 163.263,128.48 159.263,133.147 155.5,138C 146.834,139.664 143,136.164 144,127.5C 153.029,112.817 165.862,102.983 182.5,98C 193.642,94.9207 204.975,92.9207 216.5,92C 209.365,83.3488 200.198,78.5155 189,77.5C 168.712,81.0102 150.379,76.6769 134,64.5C 131.833,54.6667 135.667,50.8333 145.5,53C 158.661,61.532 172.994,64.3654 188.5,61.5C 203.4,62.0695 215.9,67.7362 226,78.5C 227.885,77.6867 228.551,76.3533 228,74.5C 218.012,60.1897 211.012,44.523 207,27.5C 204.993,4.33883 214.659,-2.66117 236,6.5C 241.674,5.07613 246.84,2.74279 251.5,-0.5 Z"/></g>
<g><path style="opacity:1" fill="#e8ba6a" d="M 278.5,22.5 C 270.506,40.6602 260.839,57.8268 249.5,74C 250.737,74.2321 251.737,74.7321 252.5,75.5C 249.495,75.747 246.995,74.747 245,72.5C 236.167,59.8343 229.167,46.1677 224,31.5C 222.637,27.2388 222.304,22.9054 223,18.5C 229.77,22.6227 236.937,23.456 244.5,21C 248.931,17.8942 253.764,15.7275 259,14.5C 265.667,16.7499 272.167,19.4166 278.5,22.5 Z"/></g>
<g><path style="opacity:1" fill="#e6ad4c" d="M 252.5,75.5 C 251.737,74.7321 250.737,74.2321 249.5,74C 260.839,57.8268 270.506,40.6602 278.5,22.5C 281.518,22.6646 284.518,22.498 287.5,22C 293.665,19.7462 299.665,17.2462 305.5,14.5C 310.976,15.5715 315.976,17.7382 320.5,21C 328.165,23.2921 335.498,22.4588 342.5,18.5C 343.647,20.7649 343.814,23.0982 343,25.5C 337.803,42.5612 329.969,58.2279 319.5,72.5C 297.371,79.1183 275.038,80.1183 252.5,75.5 Z"/></g>
<g><path style="opacity:1" fill="#fadc7a" d="M 238.5,88.5 C 251.647,91.4731 264.981,93.1397 278.5,93.5C 292.954,92.6952 307.287,91.1952 321.5,89C 327.109,92.2769 328.942,97.1103 327,103.5C 326.193,106.973 324.027,109.14 320.5,110C 293.142,115.927 265.809,115.927 238.5,110C 229.233,102.792 229.233,95.6252 238.5,88.5 Z"/></g>
<g><path style="opacity:1" fill="#e7ad4c" d="M 370.5,137.5 C 374.5,142.167 378.833,146.5 383.5,150.5C 381.233,154.427 381.066,158.427 383,162.5C 414.866,195.228 434.866,234.228 443,279.5C 447.239,312.605 440.406,343.105 422.5,371C 391.846,384.604 361.179,398.104 330.5,411.5C 329.514,407.03 329.181,402.363 329.5,397.5C 355.629,374.235 369.796,344.901 372,309.5C 373.599,287.626 370.932,266.292 364,245.5C 346.798,200.272 319.632,162.106 282.5,131C 283.737,130.768 284.737,130.268 285.5,129.5C 295.97,129.566 306.303,128.4 316.5,126C 323.235,125.147 329.235,122.647 334.5,118.5C 342.979,125.144 351.312,131.978 359.5,139C 363.539,141.158 367.206,140.658 370.5,137.5 Z"/></g>
<g><path style="opacity:1" fill="#e9bb6a" d="M 285.5,129.5 C 284.737,130.268 283.737,130.768 282.5,131C 319.632,162.106 346.798,200.272 364,245.5C 370.932,266.292 373.599,287.626 372,309.5C 369.796,344.901 355.629,374.235 329.5,397.5C 329.167,397.5 328.833,397.5 328.5,397.5C 322.948,373.124 307.614,359.957 282.5,358C 253.081,354.892 223.747,351.225 194.5,347C 177.555,339.194 160.888,330.861 144.5,322C 137.42,318.917 130.087,316.751 122.5,315.5C 119.179,275.943 128.013,239.276 149,205.5C 169.718,172.276 195.885,143.943 227.5,120.5C 233.124,123.577 239.124,125.744 245.5,127C 258.741,129.138 272.075,129.971 285.5,129.5 Z"/></g>
<g><path style="opacity:1" fill="#040301" d="M 267.5,304.5 C 269.607,305.468 271.941,305.802 274.5,305.5C 274.83,285.326 274.497,265.326 273.5,245.5C 264.157,241.994 255.99,236.661 249,229.5C 238.02,206.447 243.52,188.614 265.5,176C 268.432,174.855 271.432,174.022 274.5,173.5C 274.334,168.821 274.501,164.155 275,159.5C 279.478,152.928 284.145,152.928 289,159.5C 289.499,164.155 289.666,168.821 289.5,173.5C 299.248,174.358 307.748,178.024 315,184.5C 317.562,190.825 315.562,194.825 309,196.5C 305.288,195.134 301.788,193.301 298.5,191C 295.568,189.855 292.568,189.022 289.5,188.5C 289.167,204.514 289.501,220.514 290.5,236.5C 317.755,243.57 328.921,260.903 324,288.5C 318.618,305.719 307.118,316.052 289.5,319.5C 289.904,325.29 289.404,330.956 288,336.5C 283.291,340.769 278.958,340.436 275,335.5C 274.807,330.25 274.307,325.083 273.5,320C 262.832,320.163 253.166,317.163 244.5,311C 239.465,307.987 238.298,303.82 241,298.5C 242.739,297.106 244.739,296.439 247,296.5C 253.639,299.566 260.472,302.232 267.5,304.5 Z"/></g>
<g><path style="opacity:1" fill="#e3b667" d="M 270.5,189.5 C 271.833,189.5 273.167,189.5 274.5,189.5C 274.667,202.837 274.5,216.171 274,229.5C 258.218,223.267 254.218,212.6 262,197.5C 264.729,194.601 267.562,191.934 270.5,189.5 Z"/></g>
<g><path style="opacity:1" fill="#b69252" d="M 273.5,245.5 C 274.497,265.326 274.83,285.326 274.5,305.5C 271.941,305.802 269.607,305.468 267.5,304.5C 269.5,304.5 271.5,304.5 273.5,304.5C 273.5,284.833 273.5,265.167 273.5,245.5 Z"/></g>
<g><path style="opacity:1" fill="#e7b969" d="M 289.5,252.5 C 307.547,257.075 314.047,268.409 309,286.5C 305.574,295.593 299.241,301.593 290,304.5C 289.5,287.17 289.333,269.837 289.5,252.5 Z"/></g>
<g><path style="opacity:1" fill="#3f6f92" d="M 77.5,353.5 C 77.5,360.167 77.5,366.833 77.5,373.5C 74.8045,373.933 72.6379,375.266 71,377.5C 70.6667,412.5 70.3333,447.5 70,482.5C 69.1667,484 68,485.167 66.5,486C 52.8333,486.667 39.1667,486.667 25.5,486C 24.2986,485.097 23.4652,483.931 23,482.5C 22.3333,422.5 22.3333,362.5 23,302.5C 23.3742,301.584 23.8742,300.75 24.5,300C 38.0722,298.37 51.7389,298.037 65.5,299C 66.9308,299.465 68.0975,300.299 69,301.5C 70.3037,317.408 70.9703,333.408 71,349.5C 72.5707,351.923 74.7374,353.256 77.5,353.5 Z"/></g>
<g><path style="opacity:1" fill="#4e433f" d="M 93.5,325.5 C 90.8333,325.5 88.1667,325.5 85.5,325.5C 85.8254,333.352 85.492,341.018 84.5,348.5C 84.5,340.5 84.5,332.5 84.5,324.5C 87.7131,324.19 90.7131,324.523 93.5,325.5 Z"/></g>
<g><path style="opacity:1" fill="#fedccd" d="M 93.5,325.5 C 106.625,325.743 119.292,328.243 131.5,333C 148.414,340.791 165.081,349.124 181.5,358C 186.363,360.066 191.363,361.732 196.5,363C 228.502,367 260.502,371 292.5,375C 303.93,378.927 310.93,386.761 313.5,398.5C 313.5,404.167 313.5,409.833 313.5,415.5C 287.328,415.169 261.328,415.502 235.5,416.5C 229.513,418.613 228.013,422.613 231,428.5C 231.903,429.701 233.069,430.535 234.5,431C 264.167,431.667 293.833,431.667 323.5,431C 356.749,416.207 390.082,401.707 423.5,387.5C 425.614,388.36 426.78,390.027 427,392.5C 429.101,401.854 426.935,410.021 420.5,417C 391.303,436.098 361.636,454.432 331.5,472C 325.87,473.491 320.203,474.824 314.5,476C 269.167,476.667 223.833,476.667 178.5,476C 173.469,474.794 168.469,473.46 163.5,472C 137.577,462.201 111.577,452.701 85.5,443.5C 85.6666,421.831 85.5,400.164 85,378.5C 83.2539,375.71 80.7539,374.043 77.5,373.5C 77.5,366.833 77.5,360.167 77.5,353.5C 81.1398,353.525 83.4731,351.858 84.5,348.5C 85.492,341.018 85.8254,333.352 85.5,325.5C 88.1667,325.5 90.8333,325.5 93.5,325.5 Z"/></g>
<g><path style="opacity:1" fill="#fdc9bc" d="M 85.5,443.5 C 111.577,452.701 137.577,462.201 163.5,472C 168.469,473.46 173.469,474.794 178.5,476C 223.833,476.667 269.167,476.667 314.5,476C 320.203,474.824 325.87,473.491 331.5,472C 361.636,454.432 391.303,436.098 420.5,417C 426.935,410.021 429.101,401.854 427,392.5C 426.78,390.027 425.614,388.36 423.5,387.5C 435.956,381.442 448.623,375.609 461.5,370C 470.86,365.553 479.026,367.053 486,374.5C 489.333,380.833 489.333,387.167 486,393.5C 482.117,397.05 477.951,400.217 473.5,403C 427.335,432.25 381.002,461.25 334.5,490C 329.489,491.67 324.489,493.337 319.5,495C 294.689,496.115 269.856,496.615 245,496.5C 221.793,496.641 198.627,496.141 175.5,495C 145.653,484.662 115.986,473.829 86.5,462.5C 85.5037,456.202 85.1703,449.868 85.5,443.5 Z"/></g>
<g><path style="opacity:1" fill="#533e1c" d="M 328.5,397.5 C 328.833,397.5 329.167,397.5 329.5,397.5C 329.181,402.363 329.514,407.03 330.5,411.5C 330.44,412.043 330.107,412.376 329.5,412.5C 328.506,407.544 328.173,402.544 328.5,397.5 Z"/></g>
<g><path style="opacity:1" fill="#a79187" d="M 313.5,398.5 C 314.49,404.31 314.823,410.31 314.5,416.5C 288.167,416.5 261.833,416.5 235.5,416.5C 261.328,415.502 287.328,415.169 313.5,415.5C 313.5,409.833 313.5,404.167 313.5,398.5 Z"/></g>
</svg>
