<svg xmlns="http://www.w3.org/2000/svg"  viewBox="0 0 50 50" width="50px" height="50px" baseProfile="basic"><polygon fill="#4460b3" points="42,29.04 42,35.97 38,38.28 30,33.66 30,42.9 26,45.21 20,41.74 20,27.89 8,20.96 8,14.03 12,11.72 20,16.34 20,7.1 24,4.79 30,8.26 30,22.11"/><polygon fill="#6189ff" points="38,31.351 26,24.423 26,10.566 20,7.102 20,20.959 8,14.03 8,20.959 20,27.887 20,41.743 26,45.207 26,31.351 38,38.279"/><polygon fill="#577be6" points="30,22.113 26,24.423 38,31.351 42,29.041"/><polygon fill="#577be6" points="12,11.721 8,14.03 20,20.959 20,16.34"/><polygon fill="#577be6" points="30,8.257 26,10.566 20,7.102 24,4.793"/></svg>