<?xml version="1.0" encoding="UTF-8"?>
<!DOCTYPE svg PUBLIC "-//W3C//DTD SVG 1.1//EN" "http://www.w3.org/Graphics/SVG/1.1/DTD/svg11.dtd">
<svg xmlns="http://www.w3.org/2000/svg" version="1.1" width="512px" height="512px" style="shape-rendering:geometricPrecision; text-rendering:geometricPrecision; image-rendering:optimizeQuality; fill-rule:evenodd; clip-rule:evenodd" xmlns:xlink="http://www.w3.org/1999/xlink">
<g><path style="opacity:0.988" fill="#020101" d="M 172.5,-0.5 C 227.833,-0.5 283.167,-0.5 338.5,-0.5C 345.789,2.79501 349.456,8.46168 349.5,16.5C 359.506,16.3335 369.506,16.5002 379.5,17C 394.891,22.4274 401.057,33.2607 398,49.5C 392.475,76.3616 376.141,91.3616 349,94.5C 346.804,107.06 341.304,117.893 332.5,127C 383.167,127.333 433.833,127.667 484.5,128C 494.434,130.933 500.6,137.433 503,147.5C 503.888,161.541 503.554,175.541 502,189.5C 496.839,205.829 486.005,216.162 469.5,220.5C 469.5,297.5 469.5,374.5 469.5,451.5C 478.25,451.09 486.916,451.59 495.5,453C 503.107,456.438 508.44,461.938 511.5,469.5C 511.5,479.833 511.5,490.167 511.5,500.5C 508.833,505.167 505.167,508.833 500.5,511.5C 337.167,511.5 173.833,511.5 10.5,511.5C 5.83333,508.833 2.16667,505.167 -0.5,500.5C -0.5,490.167 -0.5,479.833 -0.5,469.5C 2.56003,461.938 7.89337,456.438 15.5,453C 24.0836,451.59 32.7502,451.09 41.5,451.5C 41.5,374.5 41.5,297.5 41.5,220.5C 24.9946,216.162 14.1612,205.829 9,189.5C 7.44564,175.541 7.11231,161.541 8,147.5C 10.3998,137.433 16.5664,130.933 26.5,128C 77.1667,127.667 127.833,127.333 178.5,127C 169.984,118.136 164.484,107.636 162,95.5C 161.333,67.1667 161.333,38.8333 162,10.5C 164.357,5.64549 167.857,1.97883 172.5,-0.5 Z M 349.5,34.5 C 380.555,27.6823 388.055,37.6823 372,64.5C 366.024,71.2377 358.524,74.9043 349.5,75.5C 349.5,61.8333 349.5,48.1667 349.5,34.5 Z"/></g>
<g><path style="opacity:1" fill="#f4f4f4" d="M 315.5,41.5 C 288.995,41.1688 262.661,41.5022 236.5,42.5C 230.354,45.4421 228.854,50.1088 232,56.5C 233.255,57.2106 234.421,58.044 235.5,59C 262.165,59.5 288.831,59.6666 315.5,59.5C 315.667,70.1719 315.5,80.8385 315,91.5C 312.257,105.666 305.423,117.332 294.5,126.5C 267.67,127.664 240.67,127.83 213.5,127C 194.451,121.951 182.951,109.785 179,90.5C 178.5,80.172 178.334,69.8387 178.5,59.5C 188.605,59.9495 198.605,59.4495 208.5,58C 213.446,53.6997 213.779,49.033 209.5,44C 208.255,43.2086 206.922,42.7086 205.5,42.5C 197.016,41.507 188.349,41.1736 179.5,41.5C 179.5,33.5 179.5,25.5 179.5,17.5C 224.833,17.5 270.167,17.5 315.5,17.5C 315.5,25.5 315.5,33.5 315.5,41.5 Z"/></g>
<g><path style="opacity:1" fill="#d0d7da" d="M 331.5,16.5 C 331.5,24.8333 331.5,33.1667 331.5,41.5C 326.167,41.5 320.833,41.5 315.5,41.5C 315.5,33.5 315.5,25.5 315.5,17.5C 270.167,17.5 224.833,17.5 179.5,17.5C 179.5,25.5 179.5,33.5 179.5,41.5C 188.349,41.1736 197.016,41.507 205.5,42.5C 196.5,42.5 187.5,42.5 178.5,42.5C 178.5,33.8333 178.5,25.1667 178.5,16.5C 229.5,16.5 280.5,16.5 331.5,16.5 Z"/></g>
<g><path style="opacity:1" fill="#9fa0a1" d="M 331.5,16.5 C 332.493,24.9839 332.826,33.6506 332.5,42.5C 300.5,42.5 268.5,42.5 236.5,42.5C 262.661,41.5022 288.995,41.1688 315.5,41.5C 320.833,41.5 326.167,41.5 331.5,41.5C 331.5,33.1667 331.5,24.8333 331.5,16.5 Z"/></g>
<g><path style="opacity:1" fill="#ccd5d9" d="M 315.5,59.5 C 321.167,59.5 326.833,59.5 332.5,59.5C 332.666,69.5056 332.5,79.5056 332,89.5C 329.114,107.721 318.948,119.888 301.5,126C 299.19,126.497 296.857,126.663 294.5,126.5C 305.423,117.332 312.257,105.666 315,91.5C 315.5,80.8385 315.667,70.1719 315.5,59.5 Z"/></g>
<g><path style="opacity:1" fill="#f24234" d="M 466.5,144.5 C 466.987,145.473 467.487,146.473 468,147.5C 468.667,160.167 468.667,172.833 468,185.5C 466.222,193.399 462.056,199.399 455.5,203.5C 451.396,203.116 447.729,201.616 444.5,199C 441.473,195.973 438.473,192.973 435.5,190C 429.139,186.728 422.806,186.728 416.5,190C 400.134,209.272 383.8,209.272 367.5,190C 361.139,186.728 354.806,186.728 348.5,190C 331.719,209.28 315.053,209.28 298.5,190C 292.483,186.757 286.483,186.757 280.5,190C 263.768,209.282 247.101,209.282 230.5,190C 222.999,186.074 215.999,186.741 209.5,192C 193.95,208.927 178.617,208.593 163.5,191C 156.5,186.333 149.5,186.333 142.5,191C 132.204,204.552 119.537,207.552 104.5,200C 100.8,195.965 96.7998,192.298 92.5,189C 87.9241,187.524 83.2574,187.19 78.5,188C 73.1492,193.014 67.4825,197.681 61.5,202C 44.7785,207.225 32.9451,201.725 26,185.5C 25.3333,173.5 25.3333,161.5 26,149.5C 26.8333,147.333 28.3333,145.833 30.5,145C 175.833,144.5 321.166,144.333 466.5,144.5 Z"/></g>
<g><path style="opacity:1" fill="#c61e1e" d="M 466.5,144.5 C 471.179,144.334 475.845,144.501 480.5,145C 482.667,145.833 484.167,147.333 485,149.5C 485.667,161.5 485.667,173.5 485,185.5C 479.692,199.387 469.858,205.387 455.5,203.5C 462.056,199.399 466.222,193.399 468,185.5C 468.667,172.833 468.667,160.167 468,147.5C 467.487,146.473 466.987,145.473 466.5,144.5 Z"/></g>
<g><path style="opacity:1" fill="#fddeb0" d="M 434.5,212.5 C 434.5,292.167 434.5,371.833 434.5,451.5C 428.833,451.5 423.167,451.5 417.5,451.5C 417.667,390.166 417.5,328.832 417,267.5C 415.037,261.269 410.87,257.436 404.5,256C 373.167,255.333 341.833,255.333 310.5,256C 305.065,257.769 301.232,261.269 299,266.5C 298.5,328.166 298.333,389.832 298.5,451.5C 243.499,451.333 188.499,451.5 133.5,452C 129.724,453.605 127.724,456.438 127.5,460.5C 118.566,461.092 109.899,460.425 101.5,458.5C 100.749,455.247 98.7492,453.08 95.5,452C 83.5046,451.5 71.5046,451.333 59.5,451.5C 59.1684,374.263 59.5018,297.096 60.5,220C 70.4674,217.703 78.634,212.536 85,204.5C 102.363,223.816 122.196,226.649 144.5,213C 147.903,210.719 150.737,207.886 153,204.5C 169.883,223.418 189.383,226.584 211.5,214C 214.98,211.354 218.314,208.521 221.5,205.5C 240.067,224.223 260.4,226.39 282.5,212C 285,209.5 287.5,207 290,204.5C 307.323,223.815 327.156,226.648 349.5,213C 352.333,210.167 355.167,207.333 358,204.5C 376.025,224.238 396.192,226.738 418.5,212C 421,209.5 423.5,207 426,204.5C 428.703,207.371 431.536,210.038 434.5,212.5 Z"/></g>
<g><path style="opacity:1" fill="#dfc49c" d="M 434.5,212.5 C 439.387,216.36 444.887,219.026 451,220.5C 451.5,297.499 451.667,374.499 451.5,451.5C 445.833,451.5 440.167,451.5 434.5,451.5C 434.5,371.833 434.5,292.167 434.5,212.5 Z"/></g>
<g><path style="opacity:1" fill="#020202" d="M 105.5,255.5 C 154.168,255.333 202.834,255.5 251.5,256C 256.935,257.769 260.768,261.269 263,266.5C 263.667,315.833 263.667,365.167 263,414.5C 260.807,421.017 256.307,424.85 249.5,426C 201.833,426.667 154.167,426.667 106.5,426C 99.8665,423.703 95.6999,419.203 94,412.5C 93.3333,364.167 93.3333,315.833 94,267.5C 95.0804,265.004 96.4138,262.67 98,260.5C 100.479,258.686 102.979,257.019 105.5,255.5 Z"/></g>
<g><path style="opacity:1" fill="#03a9f3" d="M 229.5,272.5 C 229.5,306.5 229.5,340.5 229.5,374.5C 189.833,374.5 150.167,374.5 110.5,374.5C 110.5,340.5 110.5,306.5 110.5,272.5C 150.167,272.5 189.833,272.5 229.5,272.5 Z"/></g>
<g><path style="opacity:1" fill="#0374b7" d="M 229.5,272.5 C 235.167,272.5 240.833,272.5 246.5,272.5C 246.5,306.833 246.5,341.167 246.5,375.5C 200.997,375.832 155.664,375.499 110.5,374.5C 150.167,374.5 189.833,374.5 229.5,374.5C 229.5,340.5 229.5,306.5 229.5,272.5 Z"/></g>
<g><path style="opacity:1" fill="#9f512c" d="M 383.5,272.5 C 383.831,294.34 383.497,316.006 382.5,337.5C 378.513,331.669 373.68,331.002 368,335.5C 366.86,344.237 366.36,353.07 366.5,362C 366.36,370.93 366.86,379.763 368,388.5C 370.909,391.394 374.409,392.227 378.5,391C 380.324,390.34 381.657,389.173 382.5,387.5C 383.497,408.66 383.831,429.993 383.5,451.5C 360.833,451.5 338.167,451.5 315.5,451.5C 315.5,391.833 315.5,332.167 315.5,272.5C 338.167,272.5 360.833,272.5 383.5,272.5 Z"/></g>
<g><path style="opacity:1" fill="#773d21" d="M 383.5,272.5 C 389.167,272.5 394.833,272.5 400.5,272.5C 400.5,332.167 400.5,391.833 400.5,451.5C 394.833,451.5 389.167,451.5 383.5,451.5C 383.831,429.993 383.497,408.66 382.5,387.5C 383.82,370.804 383.82,354.137 382.5,337.5C 383.497,316.006 383.831,294.34 383.5,272.5 Z"/></g>
<g><path style="opacity:1" fill="#f0f3f5" d="M 141.5,289.5 C 150.207,289.037 153.707,293.037 152,301.5C 148.535,305.967 144.702,310.133 140.5,314C 131.544,316.385 127.378,312.885 128,303.5C 132.031,298.304 136.531,293.637 141.5,289.5 Z"/></g>
<g><path style="opacity:1" fill="#f2f4f4" d="M 184.5,289.5 C 193.918,290.067 197.085,294.734 194,303.5C 176.5,321 159,338.5 141.5,356C 130.532,359.362 126.365,355.529 129,344.5C 147.395,325.938 165.895,307.604 184.5,289.5 Z"/></g>
<g><path style="opacity:1" fill="#010000" d="M 382.5,337.5 C 383.82,354.137 383.82,370.804 382.5,387.5C 381.657,389.173 380.324,390.34 378.5,391C 374.409,392.227 370.909,391.394 368,388.5C 366.86,379.763 366.36,370.93 366.5,362C 366.36,353.07 366.86,344.237 368,335.5C 373.68,331.002 378.513,331.669 382.5,337.5 Z"/></g>
<g><path style="opacity:1" fill="#9d9e9d" d="M 110.5,392.5 C 150.167,392.5 189.833,392.5 229.5,392.5C 229.5,397.833 229.5,403.167 229.5,408.5C 189.833,408.5 150.167,408.5 110.5,408.5C 110.5,403.167 110.5,397.833 110.5,392.5 Z"/></g>
<g><path style="opacity:1" fill="#666666" d="M 110.5,392.5 C 155.833,391.167 201.167,391.167 246.5,392.5C 246.5,397.833 246.5,403.167 246.5,408.5C 240.833,408.5 235.167,408.5 229.5,408.5C 229.5,403.167 229.5,397.833 229.5,392.5C 189.833,392.5 150.167,392.5 110.5,392.5 Z"/></g>
<g><path style="opacity:1" fill="#585858" d="M 246.5,392.5 C 247.489,397.975 247.822,403.642 247.5,409.5C 201.664,409.832 155.997,409.499 110.5,408.5C 150.167,408.5 189.833,408.5 229.5,408.5C 235.167,408.5 240.833,408.5 246.5,408.5C 246.5,403.167 246.5,397.833 246.5,392.5 Z"/></g>
<g><path style="opacity:1" fill="#7e8d93" d="M 101.5,458.5 C 109.899,460.425 118.566,461.092 127.5,460.5C 127.718,465.05 130.051,467.716 134.5,468.5C 247.999,469.333 361.666,469.833 475.5,470C 476.126,470.75 476.626,471.584 477,472.5C 477.5,479.826 477.666,487.159 477.5,494.5C 323.833,494.5 170.167,494.5 16.5,494.5C 16.3337,487.825 16.5004,481.158 17,474.5C 18.1667,472 20,470.167 22.5,469C 47.1667,468.667 71.8333,468.333 96.5,468C 100.39,466.055 102.057,462.888 101.5,458.5 Z"/></g>
<g><path style="opacity:1" fill="#535b5f" d="M 134.5,468.5 C 252.167,468.333 369.834,468.5 487.5,469C 490.573,469.739 492.74,471.572 494,474.5C 494.5,481.158 494.666,487.825 494.5,494.5C 488.833,494.5 483.167,494.5 477.5,494.5C 477.666,487.159 477.5,479.826 477,472.5C 476.626,471.584 476.126,470.75 475.5,470C 361.666,469.833 247.999,469.333 134.5,468.5 Z"/></g>
</svg>
