<?xml version="1.0" encoding="UTF-8"?>
<!DOCTYPE svg PUBLIC "-//W3C//DTD SVG 1.1//EN" "http://www.w3.org/Graphics/SVG/1.1/DTD/svg11.dtd">
<svg xmlns="http://www.w3.org/2000/svg" version="1.1" width="512px" height="512px" style="shape-rendering:geometricPrecision; text-rendering:geometricPrecision; image-rendering:optimizeQuality; fill-rule:evenodd; clip-rule:evenodd" xmlns:xlink="http://www.w3.org/1999/xlink">
<g><path style="opacity:0.971" fill="#020201" d="M 158.5,-0.5 C 167.833,-0.5 177.167,-0.5 186.5,-0.5C 210.718,7.91152 220.551,24.9115 216,50.5C 214.607,54.2857 212.941,57.9523 211,61.5C 203.387,69.1126 195.721,76.7792 188,84.5C 169.767,111.295 176.267,129.295 207.5,138.5C 210.061,126.889 216.061,117.389 225.5,110C 232.337,105.747 239.337,101.747 246.5,98C 251.913,93.3453 255.413,87.5119 257,80.5C 257.333,67.1667 257.667,53.8333 258,40.5C 262.016,18.9869 274.516,5.32024 295.5,-0.5C 322.167,-0.5 348.833,-0.5 375.5,-0.5C 394.404,4.56964 406.57,16.5696 412,35.5C 413.626,70.7997 413.96,106.133 413,141.5C 408.691,161.483 396.857,174.983 377.5,182C 369.911,184.343 362.244,185.177 354.5,184.5C 354.5,189.167 354.5,193.833 354.5,198.5C 390.304,199.622 425.971,197.956 461.5,193.5C 488.273,195.615 504.94,209.615 511.5,235.5C 511.5,260.167 511.5,284.833 511.5,309.5C 506.024,357.456 484.191,396.122 446,425.5C 440.138,448.225 429.805,468.558 415,486.5C 401.451,500.024 385.284,508.357 366.5,511.5C 354.833,511.5 343.167,511.5 331.5,511.5C 280.177,504.33 240.011,479.33 211,436.5C 201,419.167 191,401.833 181,384.5C 176.651,374.887 175.151,364.887 176.5,354.5C 173.5,354.5 170.5,354.5 167.5,354.5C 164.314,367.852 155.981,376.019 142.5,379C 134.921,379.184 127.421,379.684 120,380.5C 118.684,406.746 118.018,433.08 118,459.5C 109.415,485.057 91.5819,498.39 64.5,499.5C 44.0548,499.711 30.2215,490.378 23,471.5C 19.3645,450.274 26.5311,433.774 44.5,422C 49.0439,419.481 53.7105,417.148 58.5,415C 65.3444,410.151 69.8444,403.651 72,395.5C 72.1033,380.461 72.77,365.461 74,350.5C 75.9132,342.673 79.4132,335.673 84.5,329.5C 35.3538,297.671 7.02051,252.671 -0.5,194.5C -0.5,183.167 -0.5,171.833 -0.5,160.5C 2.46313,130.781 12.4631,103.614 29.5,79C 32.146,78.5026 34.8127,78.3359 37.5,78.5C 38.4214,80.2687 39.5881,81.9354 41,83.5C 41.6667,85.1667 41.6667,86.8333 41,88.5C 7.16452,144.731 5.83119,201.731 37,259.5C 70.2479,312.715 118.415,339.215 181.5,339C 185.033,332.46 189.7,326.794 195.5,322C 203.486,317.169 211.82,313.003 220.5,309.5C 232.543,304.645 244.209,298.979 255.5,292.5C 256.333,273.175 256.833,253.842 257,234.5C 265.584,205.284 285.084,192.117 315.5,195C 323.149,196.063 330.816,196.896 338.5,197.5C 339.387,191.855 339.554,186.188 339,180.5C 325.453,174.114 317.953,163.448 316.5,148.5C 310.989,148.205 305.656,149.038 300.5,151C 288.453,175.199 268.786,186.199 241.5,184C 224.531,181.196 213.198,171.696 207.5,155.5C 192.241,151.792 179.408,144.125 169,132.5C 168.059,130.273 166.892,128.273 165.5,126.5C 161.781,115.552 161.614,104.552 165,93.5C 171.987,78.1722 182.32,65.5055 196,55.5C 203.289,44.4721 203.289,33.4721 196,22.5C 192.547,18.8549 188.38,16.3549 183.5,15C 135.769,13.349 95.1025,29.349 61.5,63C 57.7625,64.8889 54.0959,64.7222 50.5,62.5C 49.0111,58.7567 49.1777,55.09 51,51.5C 81.0316,22.2346 116.865,4.90124 158.5,-0.5 Z M 304.5,65.5 C 325.177,65.167 345.844,65.5003 366.5,66.5C 368.578,77.6045 365.912,87.4378 358.5,96C 349.833,101.333 341.167,106.667 332.5,112C 326.602,117.792 321.936,124.459 318.5,132C 313.526,132.254 308.692,133.087 304,134.5C 303.178,111.427 303.345,88.4274 304.5,65.5 Z"/></g>
<g><path style="opacity:1" fill="#c68569" d="M 165.5,126.5 C 161.62,136.359 159.12,146.693 158,157.5C 155.6,183.505 158.6,208.839 167,233.5C 167.671,234.252 168.504,234.586 169.5,234.5C 149.086,247.585 143.919,265.252 154,287.5C 169.518,307.654 188.018,310.987 209.5,297.5C 212.372,302.047 216.039,306.047 220.5,309.5C 211.82,313.003 203.486,317.169 195.5,322C 189.7,326.794 185.033,332.46 181.5,339C 118.415,339.215 70.2479,312.715 37,259.5C 5.83119,201.731 7.16452,144.731 41,88.5C 41.6667,86.8333 41.6667,85.1667 41,83.5C 39.5881,81.9354 38.4214,80.2687 37.5,78.5C 41.8032,73.1912 46.1366,67.8579 50.5,62.5C 54.0959,64.7222 57.7625,64.8889 61.5,63C 95.1025,29.349 135.769,13.349 183.5,15C 188.38,16.3549 192.547,18.8549 196,22.5C 203.289,33.4721 203.289,44.4721 196,55.5C 182.32,65.5055 171.987,78.1722 165,93.5C 161.614,104.552 161.781,115.552 165.5,126.5 Z"/></g>
<g><path style="opacity:1" fill="#7fc35f" d="M 341.5,14.5 C 330.502,23.5007 325.169,35.1674 325.5,49.5C 317.493,49.3336 309.493,49.5003 301.5,50C 295.333,52.1667 291.167,56.3333 289,62.5C 288.667,88.8333 288.333,115.167 288,141.5C 278.922,163.793 262.422,172.627 238.5,168C 225.071,162.646 219.904,152.813 223,138.5C 225.63,131.865 229.797,126.365 235.5,122C 242.663,118.253 249.663,114.253 256.5,110C 264.144,103.019 269.311,94.5189 272,84.5C 272.333,70.5 272.667,56.5 273,42.5C 275.981,28.1868 284.481,19.0201 298.5,15C 312.829,14.5001 327.163,14.3334 341.5,14.5 Z"/></g>
<g><path style="opacity:1" fill="#8cd26f" d="M 341.5,14.5 C 350.839,14.3335 360.173,14.5002 369.5,15C 384.02,17.1883 393.187,25.355 397,39.5C 397.667,74.1667 397.667,108.833 397,143.5C 388.027,162.743 372.86,171.243 351.5,169C 335.139,164.44 328.972,153.94 333,137.5C 335.389,132.446 338.555,127.946 342.5,124C 349.044,119.227 356.044,115.227 363.5,112C 379.104,99.2052 385.271,82.7052 382,62.5C 379.631,55.4639 374.798,51.2973 367.5,50C 353.504,49.5001 339.504,49.3334 325.5,49.5C 325.169,35.1674 330.502,23.5007 341.5,14.5 Z"/></g>
<g><path style="opacity:1" fill="#040302" d="M 80.5,81.5 C 104.272,79.2969 119.439,89.6303 126,112.5C 125.571,143.93 109.738,158.097 78.5,155C 58.2688,147.048 49.4355,132.215 52,110.5C 56.3497,95.6512 65.8497,85.9845 80.5,81.5 Z"/></g>
<g><path style="opacity:1" fill="#fbdb5f" d="M 81.5,96.5 C 95.9556,94.307 105.789,99.9737 111,113.5C 111.833,132.667 102.667,141.833 83.5,141C 68.8651,135.23 63.6984,124.73 68,109.5C 71.0762,103.589 75.5762,99.2554 81.5,96.5 Z"/></g>
<g><path style="opacity:1" fill="#d99c81" d="M 165.5,126.5 C 166.892,128.273 168.059,130.273 169,132.5C 179.408,144.125 192.241,151.792 207.5,155.5C 213.198,171.696 224.531,181.196 241.5,184C 268.786,186.199 288.453,175.199 300.5,151C 305.656,149.038 310.989,148.205 316.5,148.5C 317.953,163.448 325.453,174.114 339,180.5C 339.554,186.188 339.387,191.855 338.5,197.5C 330.816,196.896 323.149,196.063 315.5,195C 285.084,192.117 265.584,205.284 257,234.5C 256.833,253.842 256.333,273.175 255.5,292.5C 244.209,298.979 232.543,304.645 220.5,309.5C 216.039,306.047 212.372,302.047 209.5,297.5C 224.438,283.963 227.605,267.963 219,249.5C 206.231,232.018 189.731,227.018 169.5,234.5C 168.504,234.586 167.671,234.252 167,233.5C 158.6,208.839 155.6,183.505 158,157.5C 159.12,146.693 161.62,136.359 165.5,126.5 Z"/></g>
<g><path style="opacity:1" fill="#050303" d="M 79.5,183.5 C 102.078,181.029 117.244,190.363 125,211.5C 126.831,221.843 125.164,231.51 120,240.5C 120.869,262.634 110.369,272.8 88.5,271C 80.3333,268.167 74.8333,262.667 72,254.5C 56.5877,245.679 49.5877,232.345 51,214.5C 55.1783,199.159 64.6783,188.826 79.5,183.5 Z"/></g>
<g><path style="opacity:1" fill="#eef2f8" d="M 81.5,198.5 C 94.8914,196.278 104.391,201.278 110,213.5C 111.582,221.408 110.249,228.741 106,235.5C 104.915,240.437 104.248,245.437 104,250.5C 100.707,256.612 95.8733,258.112 89.5,255C 86.0591,246.559 80.2258,240.393 72,236.5C 61.5287,220.415 64.6953,207.749 81.5,198.5 Z"/></g>
<g><path style="opacity:1" fill="#fddd60" d="M 359.5,214.5 C 353.461,220.376 348.794,227.21 345.5,235C 345.728,235.399 346.062,235.565 346.5,235.5C 333.236,242.141 320.903,250.308 309.5,260C 297.084,267.958 284.584,275.792 272,283.5C 271.333,267.5 271.333,251.5 272,235.5C 279.234,215.627 293.4,207.127 314.5,210C 329.495,211.785 344.495,213.285 359.5,214.5 Z"/></g>
<g><path style="opacity:1" fill="#fdec6d" d="M 432.5,327.5 C 430.38,321.26 427.713,315.26 424.5,309.5C 427.303,306.796 428.137,303.463 427,299.5C 417.378,281.749 406.878,264.583 395.5,248C 381.358,235.547 365.025,231.381 346.5,235.5C 346.062,235.565 345.728,235.399 345.5,235C 348.794,227.21 353.461,220.376 359.5,214.5C 389.621,215.261 419.621,213.761 449.5,210C 473.143,205.728 488.643,214.895 496,237.5C 496.667,260.5 496.667,283.5 496,306.5C 492.231,343.367 477.231,374.701 451,400.5C 452.669,376.851 449.669,353.851 442,331.5C 439.592,328.38 436.426,327.047 432.5,327.5 Z"/></g>
<g><path style="opacity:1" fill="#030202" d="M 209.5,297.5 C 188.018,310.987 169.518,307.654 154,287.5C 143.919,265.252 149.086,247.585 169.5,234.5C 189.731,227.018 206.231,232.018 219,249.5C 227.605,267.963 224.438,283.963 209.5,297.5 Z"/></g>
<g><path style="opacity:1" fill="#4f4f7f" d="M 181.5,245.5 C 203.859,246.684 212.025,258.017 206,279.5C 197.37,291.123 186.537,293.623 173.5,287C 162.279,277.065 160.779,265.898 169,253.5C 172.671,249.923 176.838,247.256 181.5,245.5 Z"/></g>
<g><path style="opacity:1" fill="#fe9595" d="M 424.5,309.5 C 427.713,315.26 430.38,321.26 432.5,327.5C 429.616,329.268 428.282,331.934 428.5,335.5C 441.785,380.62 436.451,423.287 412.5,463.5C 353.815,459.505 309.815,432.172 280.5,381.5C 279.167,379.167 277.833,376.833 276.5,374.5C 272.277,366.393 267.777,358.393 263,350.5C 254.909,337.144 253.409,323.144 258.5,308.5C 287.969,292.599 315.969,274.432 342.5,254C 362.073,245.101 378.24,249.268 391,266.5C 398.969,281.619 407.802,296.119 417.5,310C 419.929,310.703 422.262,310.537 424.5,309.5 Z"/></g>
<g><path style="opacity:1" fill="#080404" d="M 361.5,307.5 C 371.75,306.05 379.917,309.384 386,317.5C 388.353,323.789 386.186,327.789 379.5,329.5C 375.803,328.304 372.803,326.137 370.5,323C 361.394,322.714 359.06,326.714 363.5,335C 362.424,341.41 358.757,343.743 352.5,342C 346.442,335.882 344.942,328.716 348,320.5C 351.076,314.589 355.576,310.255 361.5,307.5 Z"/></g>
<g><path style="opacity:1" fill="#fd7c80" d="M 258.5,308.5 C 253.409,323.144 254.909,337.144 263,350.5C 267.777,358.393 272.277,366.393 276.5,374.5C 261.268,364.302 249.435,367.302 241,383.5C 240.228,388.904 240.561,394.238 242,399.5C 246.171,405.729 250.837,406.062 256,400.5C 256.807,396.814 256.307,393.314 254.5,390C 255.706,385.105 258.706,383.105 263.5,384C 265.861,387.214 268.861,389.381 272.5,390.5C 277.984,390.015 280.651,387.015 280.5,381.5C 309.815,432.172 353.815,459.505 412.5,463.5C 401.055,482.074 384.388,492.907 362.5,496C 301.873,498.772 255.04,474.938 222,424.5C 211.209,406.583 201.209,388.25 192,369.5C 189.421,355.233 193.588,343.4 204.5,334C 222.37,325.232 240.37,316.732 258.5,308.5 Z"/></g>
<g><path style="opacity:1" fill="#8ed3ef" d="M 99.5,336.5 C 115.893,344.853 133.226,350.186 151.5,352.5C 149.989,358.784 145.989,362.617 139.5,364C 131.5,364.333 123.5,364.667 115.5,365C 111.052,367.114 107.552,370.281 105,374.5C 103.692,401.771 103.026,429.105 103,456.5C 93.8342,478.002 77.6675,486.835 54.5,483C 36.5542,474.49 32.7208,461.656 43,444.5C 45.8333,441.667 48.6667,438.833 51.5,436C 58.8502,432.556 65.8502,428.556 72.5,424C 81.4963,415.842 86.6629,405.675 88,393.5C 88.3333,380.167 88.6667,366.833 89,353.5C 91.1086,346.909 94.6086,341.242 99.5,336.5 Z"/></g>
<g><path style="opacity:1" fill="#060303" d="M 332.5,358.5 C 338.013,357.91 341.347,360.244 342.5,365.5C 338.311,383.489 326.978,390.989 308.5,388C 302.311,385.234 300.978,380.9 304.5,375C 306.199,374.042 308.033,373.542 310,373.5C 320.215,375.562 326.549,371.562 329,361.5C 330.145,360.364 331.312,359.364 332.5,358.5 Z"/></g>
<g><path style="opacity:1" fill="#070303" d="M 276.5,374.5 C 277.833,376.833 279.167,379.167 280.5,381.5C 280.651,387.015 277.984,390.015 272.5,390.5C 268.861,389.381 265.861,387.214 263.5,384C 258.706,383.105 255.706,385.105 254.5,390C 256.307,393.314 256.807,396.814 256,400.5C 250.837,406.062 246.171,405.729 242,399.5C 240.561,394.238 240.228,388.904 241,383.5C 249.435,367.302 261.268,364.302 276.5,374.5 Z"/></g>
</svg>
