<?xml version="1.0" encoding="UTF-8"?>
<!DOCTYPE svg PUBLIC "-//W3C//DTD SVG 1.1//EN" "http://www.w3.org/Graphics/SVG/1.1/DTD/svg11.dtd">
<svg xmlns="http://www.w3.org/2000/svg" version="1.1" width="512px" height="512px" style="shape-rendering:geometricPrecision; text-rendering:geometricPrecision; image-rendering:optimizeQuality; fill-rule:evenodd; clip-rule:evenodd" xmlns:xlink="http://www.w3.org/1999/xlink">
<g><path style="opacity:0.993" fill="#030100" d="M 511.5,106.5 C 511.5,144.5 511.5,182.5 511.5,220.5C 510.684,222.144 509.35,223.31 507.5,224C 496.839,224.5 486.172,224.667 475.5,224.5C 475.667,293.167 475.5,361.834 475,430.5C 473.437,433.023 471.27,434.69 468.5,435.5C 464.689,434.848 461.856,432.848 460,429.5C 459.5,370.168 459.333,310.834 459.5,251.5C 459.5,242.5 459.5,233.5 459.5,224.5C 445.496,224.333 431.496,224.5 417.5,225C 421.287,234.21 424.954,243.376 428.5,252.5C 438.925,284.368 446.925,316.868 452.5,350C 451.586,357.609 447.586,360.276 440.5,358C 425.548,344.878 409.882,332.711 393.5,321.5C 383.509,337.474 373.009,353.141 362,368.5C 356.315,374.408 351.649,373.742 348,366.5C 341.905,326.432 330.405,288.098 313.5,251.5C 310.771,245.041 307.771,238.708 304.5,232.5C 304.013,231.527 303.513,230.527 303,229.5C 302.168,318.668 302.334,407.668 303.5,496.5C 355.5,496.5 407.5,496.5 459.5,496.5C 459.333,482.829 459.5,469.163 460,455.5C 461.995,452.325 464.828,450.658 468.5,450.5C 471.561,450.444 473.728,451.778 475,454.5C 475.667,472.5 475.667,490.5 475,508.5C 473.955,509.373 473.122,510.373 472.5,511.5C 327.833,511.5 183.167,511.5 38.5,511.5C 37.8783,510.373 37.045,509.373 36,508.5C 35.5,413.834 35.3333,319.167 35.5,224.5C 24.8281,224.667 14.1615,224.5 3.5,224C 1.64977,223.31 0.316435,222.144 -0.5,220.5C -0.5,212.167 -0.5,203.833 -0.5,195.5C 1.01439,192.905 3.34772,191.571 6.5,191.5C 10.1715,191.658 13.0049,193.325 15,196.5C 15.4988,200.486 15.6655,204.486 15.5,208.5C 43.8353,208.667 72.1686,208.5 100.5,208C 111.755,183.984 124.422,160.817 138.5,138.5C 116.466,131.448 94.1324,124.948 71.5,119C 52.8363,118.5 34.1696,118.333 15.5,118.5C 15.6666,135.17 15.4999,151.837 15,168.5C 14.0562,173.063 11.2229,175.396 6.5,175.5C 3.34772,175.429 1.01439,174.095 -0.5,171.5C -0.5,149.833 -0.5,128.167 -0.5,106.5C 0.961599,105.542 2.29493,104.376 3.5,103C 18.178,102.833 32.8447,102.333 47.5,101.5C 42.1187,92.5414 39.952,82.8747 41,72.5C 45.9762,53.8796 52.6429,35.8796 61,18.5C 75.6001,0.863409 93.7668,-3.96992 115.5,4C 148.876,19.7369 182.21,35.5702 215.5,51.5C 218.505,49.329 221.839,47.829 225.5,47C 245.5,46.3333 265.5,46.3333 285.5,47C 289.161,47.829 292.495,49.329 295.5,51.5C 328.79,35.5702 362.124,19.7369 395.5,4C 423.754,-5.28423 443.921,3.5491 456,30.5C 461.47,44.2425 466.136,58.2425 470,72.5C 471.048,82.8747 468.881,92.5414 463.5,101.5C 478.155,102.333 492.822,102.833 507.5,103C 508.705,104.376 510.038,105.542 511.5,106.5 Z"/></g>
<g><path style="opacity:1" fill="#fc433f" d="M 90.5,16.5 C 97.8439,15.7677 104.844,16.9344 111.5,20C 142.986,34.9103 174.32,50.0769 205.5,65.5C 203.216,70.913 201.883,76.5797 201.5,82.5C 180.614,70.2248 158.614,60.3915 135.5,53C 126.226,50.9542 116.893,49.4542 107.5,48.5C 94.8283,47.6668 83.995,51.6668 75,60.5C 70.1804,65.5576 70.3471,70.3909 75.5,75C 78.634,75.7901 81.634,75.4568 84.5,74C 87.7528,69.41 92.0861,66.41 97.5,65C 106.208,64.2478 114.875,64.5811 123.5,66C 151.1,73.9687 177.1,85.4687 201.5,100.5C 202.499,113.149 202.832,125.816 202.5,138.5C 162.438,127.984 122.438,117.151 82.5,106C 60.12,99.7409 52.62,85.5742 60,63.5C 64.3898,51.7206 69.0565,40.054 74,28.5C 78.2858,22.6977 83.7858,18.6977 90.5,16.5 Z"/></g>
<g><path style="opacity:1" fill="#fc433f" d="M 309.5,81.5 C 308.833,78.1667 308.167,74.8333 307.5,71.5C 307.414,69.323 306.747,67.323 305.5,65.5C 337.347,49.7436 369.347,34.2436 401.5,19C 415.733,13.5488 427.566,16.7155 437,28.5C 443.456,43.2 449.122,58.2 454,73.5C 455.113,87.1125 449.613,96.9459 437.5,103C 394.877,114.893 352.21,126.727 309.5,138.5C 308.334,125.846 308.167,113.18 309,100.5C 333.169,85.3336 359.002,73.8336 386.5,66C 395.125,64.5811 403.792,64.2478 412.5,65C 418.295,67.1262 423.295,70.4595 427.5,75C 433.995,76.6739 437.662,74.1739 438.5,67.5C 436.162,60.9891 431.829,56.1558 425.5,53C 414.872,48.8422 403.872,47.5089 392.5,49C 378.418,51.5828 364.752,55.5828 351.5,61C 337.048,67.0599 323.048,73.8932 309.5,81.5 Z"/></g>
<g><path style="opacity:1" fill="#fd433f" d="M 228.5,62.5 C 246.17,62.3334 263.836,62.5001 281.5,63C 286.573,64.4056 290.073,67.5723 292,72.5C 292.667,96.8333 292.667,121.167 292,145.5C 290.813,149.709 288.313,152.876 284.5,155C 265.899,156.628 247.232,156.961 228.5,156C 224.725,154.558 221.892,152.058 220,148.5C 218.362,123.229 218.028,97.8959 219,72.5C 221.022,67.98 224.189,64.6467 228.5,62.5 Z"/></g>
<g><path style="opacity:1" fill="#6e1d1b" d="M 307.5,71.5 C 308.167,74.8333 308.833,78.1667 309.5,81.5C 309.44,82.0431 309.107,82.3764 308.5,82.5C 307.511,78.8927 307.177,75.226 307.5,71.5 Z"/></g>
<g><path style="opacity:0.998" fill="#fec63a" d="M 6.5,191.5 C 6.5,186.167 6.5,180.833 6.5,175.5C 11.2229,175.396 14.0562,173.063 15,168.5C 15.4999,151.837 15.6666,135.17 15.5,118.5C 34.1696,118.333 52.8363,118.5 71.5,119C 94.1324,124.948 116.466,131.448 138.5,138.5C 124.422,160.817 111.755,183.984 100.5,208C 72.1686,208.5 43.8353,208.667 15.5,208.5C 15.6655,204.486 15.4988,200.486 15,196.5C 13.0049,193.325 10.1715,191.658 6.5,191.5 Z"/></g>
<g><path style="opacity:1" fill="#fec63a" d="M 438.5,118.5 C 457.5,118.5 476.5,118.5 495.5,118.5C 495.5,148.5 495.5,178.5 495.5,208.5C 466.926,208.829 438.426,208.495 410,207.5C 399.039,183.573 386.539,160.573 372.5,138.5C 372.709,137.914 373.043,137.414 373.5,137C 395.435,131.271 417.101,125.104 438.5,118.5 Z"/></g>
<g><path style="opacity:1" fill="#e82e2e" d="M 206.5,199.5 C 184.989,194.289 163.656,188.456 142.5,182C 139.207,181.174 135.874,180.674 132.5,180.5C 139.093,166.963 146.926,154.296 156,142.5C 172.829,147.083 189.662,151.75 206.5,156.5C 210.369,163.37 216.035,168.037 223.5,170.5C 224.583,171.365 224.749,172.365 224,173.5C 217.912,182.071 212.079,190.738 206.5,199.5 Z"/></g>
<g><path style="opacity:1" fill="#e82e2e" d="M 378.5,179.5 C 353.899,186.289 329.232,192.956 304.5,199.5C 298.921,190.738 293.088,182.071 287,173.5C 286.251,172.365 286.417,171.365 287.5,170.5C 290.603,169.237 293.603,167.737 296.5,166C 299.736,162.32 303.069,158.82 306.5,155.5C 321.601,151.647 336.601,147.481 351.5,143C 353.441,142.257 355.274,142.424 357,143.5C 364.43,155.362 371.596,167.362 378.5,179.5 Z"/></g>
<g><path style="opacity:1" fill="#fdc53a" d="M 290.5,207.5 C 267.167,208.833 243.833,208.833 220.5,207.5C 227.358,195.638 235.025,184.304 243.5,173.5C 251.5,172.167 259.5,172.167 267.5,173.5C 275.975,184.304 283.642,195.638 290.5,207.5 Z"/></g>
<g><path style="opacity:1" fill="#fd433f" d="M 132.5,180.5 C 135.874,180.674 139.207,181.174 142.5,182C 163.656,188.456 184.989,194.289 206.5,199.5C 180.043,244.362 161.543,292.362 151,343.5C 142.997,332.837 135.997,321.503 130,309.5C 128.513,307.015 126.679,304.848 124.5,303C 121.833,302.333 119.167,302.333 116.5,303C 103.438,311.394 90.9384,320.561 79,330.5C 88.0893,277.333 105.923,227.333 132.5,180.5 Z"/></g>
<g><path style="opacity:1" fill="#fd433f" d="M 378.5,179.5 C 404.835,226.834 422.669,277.167 432,330.5C 420.062,320.561 407.562,311.394 394.5,303C 391.833,302.333 389.167,302.333 386.5,303C 384.321,304.848 382.487,307.015 381,309.5C 375.003,321.503 368.003,332.837 360,343.5C 349.457,292.362 330.957,244.362 304.5,199.5C 329.232,192.956 353.899,186.289 378.5,179.5 Z"/></g>
<g><path style="opacity:1" fill="#2f250b" d="M 220.5,207.5 C 243.833,208.833 267.167,208.833 290.5,207.5C 291.043,207.56 291.376,207.893 291.5,208.5C 267.5,209.833 243.5,209.833 219.5,208.5C 219.624,207.893 219.957,207.56 220.5,207.5 Z"/></g>
<g><path style="opacity:1" fill="#eeaf24" d="M 82.5,252.5 C 72.3468,251.506 62.0135,251.172 51.5,251.5C 51.5,242.5 51.5,233.5 51.5,224.5C 65.504,224.333 79.504,224.5 93.5,225C 89.7131,234.21 86.0465,243.376 82.5,252.5 Z"/></g>
<g><path style="opacity:1" fill="#eeaf24" d="M 459.5,251.5 C 448.986,251.172 438.653,251.506 428.5,252.5C 424.954,243.376 421.287,234.21 417.5,225C 431.496,224.5 445.496,224.333 459.5,224.5C 459.5,233.5 459.5,242.5 459.5,251.5 Z"/></g>
<g><path style="opacity:1" fill="#e9ac24" d="M 206.5,232.5 C 207.49,238.645 207.823,244.978 207.5,251.5C 204.167,251.5 200.833,251.5 197.5,251.5C 200.229,245.041 203.229,238.708 206.5,232.5 Z"/></g>
<g><path style="opacity:1" fill="#e9ac24" d="M 304.5,232.5 C 307.771,238.708 310.771,245.041 313.5,251.5C 310.167,251.5 306.833,251.5 303.5,251.5C 303.177,244.978 303.51,238.645 304.5,232.5 Z"/></g>
<g><path style="opacity:1" fill="#fec63a" d="M 51.5,251.5 C 62.0135,251.172 72.3468,251.506 82.5,252.5C 72.0748,284.368 64.0748,316.868 58.5,350C 59.2692,357.428 63.2692,360.095 70.5,358C 85.4517,344.878 101.118,332.711 117.5,321.5C 127.491,337.474 137.991,353.141 149,368.5C 152.309,371.647 156.142,372.313 160.5,370.5C 161.584,369.335 162.417,368.002 163,366.5C 169.095,326.432 180.595,288.098 197.5,251.5C 200.833,251.5 204.167,251.5 207.5,251.5C 207.5,333.167 207.5,414.833 207.5,496.5C 155.5,496.5 103.5,496.5 51.5,496.5C 51.5,414.833 51.5,333.167 51.5,251.5 Z"/></g>
<g><path style="opacity:1" fill="#967421" d="M 207.5,496.5 C 207.5,414.833 207.5,333.167 207.5,251.5C 207.823,244.978 207.49,238.645 206.5,232.5C 206.987,231.527 207.487,230.527 208,229.5C 208.832,318.668 208.666,407.668 207.5,496.5 Z"/></g>
<g><path style="opacity:1" fill="#967421" d="M 304.5,232.5 C 303.51,238.645 303.177,244.978 303.5,251.5C 303.5,333.167 303.5,414.833 303.5,496.5C 302.334,407.668 302.168,318.668 303,229.5C 303.513,230.527 304.013,231.527 304.5,232.5 Z"/></g>
<g><path style="opacity:0.999" fill="#fec63a" d="M 303.5,251.5 C 306.833,251.5 310.167,251.5 313.5,251.5C 330.405,288.098 341.905,326.432 348,366.5C 351.649,373.742 356.315,374.408 362,368.5C 373.009,353.141 383.509,337.474 393.5,321.5C 409.882,332.711 425.548,344.878 440.5,358C 447.586,360.276 451.586,357.609 452.5,350C 446.925,316.868 438.925,284.368 428.5,252.5C 438.653,251.506 448.986,251.172 459.5,251.5C 459.333,310.834 459.5,370.168 460,429.5C 461.856,432.848 464.689,434.848 468.5,435.5C 468.5,440.5 468.5,445.5 468.5,450.5C 464.828,450.658 461.995,452.325 460,455.5C 459.5,469.163 459.333,482.829 459.5,496.5C 407.5,496.5 355.5,496.5 303.5,496.5C 303.5,414.833 303.5,333.167 303.5,251.5 Z"/></g>
<g><path style="opacity:1" fill="#ae2d2b" d="M 224.5,224.5 C 224.5,233.5 224.5,242.5 224.5,251.5C 224.5,332.833 224.5,414.167 224.5,495.5C 245.167,495.5 265.833,495.5 286.5,495.5C 286.5,414.167 286.5,332.833 286.5,251.5C 286.5,242.5 286.5,233.5 286.5,224.5C 287.499,314.998 287.833,405.665 287.5,496.5C 266.167,496.5 244.833,496.5 223.5,496.5C 223.167,405.665 223.501,314.998 224.5,224.5 Z"/></g>
<g><path style="opacity:1" fill="#fe443f" d="M 224.5,251.5 C 245.167,251.5 265.833,251.5 286.5,251.5C 286.5,332.833 286.5,414.167 286.5,495.5C 265.833,495.5 245.167,495.5 224.5,495.5C 224.5,414.167 224.5,332.833 224.5,251.5 Z"/></g>
<g><path style="opacity:1" fill="#ea2f2f" d="M 224.5,224.5 C 245.167,224.5 265.833,224.5 286.5,224.5C 286.5,233.5 286.5,242.5 286.5,251.5C 265.833,251.5 245.167,251.5 224.5,251.5C 224.5,242.5 224.5,233.5 224.5,224.5 Z"/></g>
</svg>
