<?xml version="1.0" encoding="UTF-8"?>
<!DOCTYPE svg PUBLIC "-//W3C//DTD SVG 1.1//EN" "http://www.w3.org/Graphics/SVG/1.1/DTD/svg11.dtd">
<svg xmlns="http://www.w3.org/2000/svg" version="1.1" width="512px" height="512px" style="shape-rendering:geometricPrecision; text-rendering:geometricPrecision; image-rendering:optimizeQuality; fill-rule:evenodd; clip-rule:evenodd" xmlns:xlink="http://www.w3.org/1999/xlink">
<g><path style="opacity:0.972" fill="#030201" d="M 511.5,78.5 C 511.5,87.5 511.5,96.5 511.5,105.5C 507.414,129.501 495.747,149.001 476.5,164C 495.465,218.048 486.965,267.214 451,311.5C 420.5,342.667 390,373.833 359.5,405C 377.28,402.578 394.947,399.245 412.5,395C 423.44,393.178 433.774,394.844 443.5,400C 452.926,407.605 456.426,417.438 454,429.5C 451.556,439.215 446.056,446.715 437.5,452C 388.107,469.1 338.44,485.433 288.5,501C 267.861,507.974 246.861,509.308 225.5,505C 178.572,492.394 131.739,479.56 85,466.5C 84.4439,471.389 81.9439,474.889 77.5,477C 53.5,477.667 29.5,477.667 5.5,477C 2.97739,475.64 0.977392,473.807 -0.5,471.5C -0.5,424.5 -0.5,377.5 -0.5,330.5C 1.61147,326.602 4.9448,324.435 9.5,324C 20.1667,323.833 30.8333,323.667 41.5,323.5C 53.5539,323.375 65.5539,323.875 77.5,325C 81.9103,327.085 84.4103,330.585 85,335.5C 95.0764,333.403 105.243,331.57 115.5,330C 68.8081,288.587 52.6414,237.42 67,176.5C 69.8373,167.159 73.5039,158.159 78,149.5C 80.739,146.586 83.9057,145.919 87.5,147.5C 91.0771,149.858 92.2437,153.191 91,157.5C 77.2632,185.159 73.5965,214.159 80,244.5C 85.281,266.399 95.281,285.732 110,302.5C 118.167,310.667 126.333,318.833 134.5,327C 158.792,323.29 183.125,319.29 207.5,315C 217.167,314.333 226.833,314.333 236.5,315C 254.964,318.113 273.298,321.78 291.5,326C 299.47,329.152 306.137,333.985 311.5,340.5C 319.849,353.83 319.349,366.83 310,379.5C 297.218,389.819 282.718,393.152 266.5,389.5C 253.472,388.08 240.472,386.413 227.5,384.5C 220.691,384.307 217.024,387.641 216.5,394.5C 216.743,398.151 218.41,400.984 221.5,403C 228.352,405.142 235.352,406.642 242.5,407.5C 261.713,411.48 281.047,414.813 300.5,417.5C 310.575,416.179 320.575,414.346 330.5,412C 366.667,375.167 402.833,338.333 439,301.5C 465.882,269.653 475.882,232.986 469,191.5C 467.75,184.484 465.583,177.818 462.5,171.5C 421.799,189.702 385.966,182.702 355,150.5C 345.856,138.879 339.356,125.879 335.5,111.5C 326.831,114.831 318.831,119.164 311.5,124.5C 307.862,126.99 304.195,129.49 300.5,132C 294.136,138.699 287.469,145.032 280.5,151C 276.167,154.333 271.833,154.333 267.5,151C 256.337,139.161 244.003,128.828 230.5,120C 204.828,104.832 177.494,100.499 148.5,107C 132.441,112.403 118.441,121.069 106.5,133C 103.562,133.712 100.896,133.212 98.5,131.5C 96.1317,127.948 95.9651,124.281 98,120.5C 124.42,93.9175 156.253,83.7508 193.5,90C 225.444,96.3094 252.277,111.476 274,135.5C 290.699,117.803 310.366,104.469 333,95.5C 332.891,82.3804 335.224,69.7137 340,57.5C 341.748,50.2381 346.248,47.2381 353.5,48.5C 355.218,50.768 356.551,53.268 357.5,56C 341.718,90.4146 347.051,121.081 373.5,148C 381.355,154.928 390.355,159.761 400.5,162.5C 430.94,171.011 457.107,163.678 479,140.5C 498.677,114.667 501.677,87.0007 488,57.5C 467.849,25.5039 439.349,13.5039 402.5,21.5C 392.226,24.4705 382.893,29.3038 374.5,36C 371.007,36.8693 368.007,36.036 365.5,33.5C 363.674,31.5449 363.174,29.2116 364,26.5C 365.458,24.04 367.291,21.8734 369.5,20C 394.095,3.34548 420.762,-0.987848 449.5,7C 483.635,19.2923 504.301,43.1256 511.5,78.5 Z"/></g>
<g><path style="opacity:1" fill="#d4dae8" d="M 400.5,162.5 C 423.696,148.274 437.363,127.608 441.5,100.5C 445.702,100.817 449.702,100.483 453.5,99.5C 459.487,97.3867 460.987,93.3867 458,87.5C 456.745,86.7894 455.579,85.956 454.5,85C 450.179,84.501 445.846,84.3343 441.5,84.5C 438.906,56.9647 425.906,35.9647 402.5,21.5C 439.349,13.5039 467.849,25.5039 488,57.5C 501.677,87.0007 498.677,114.667 479,140.5C 457.107,163.678 430.94,171.011 400.5,162.5 Z"/></g>
<g><path style="opacity:0.999" fill="#f6f0ee" d="M 402.5,21.5 C 425.906,35.9647 438.906,56.9647 441.5,84.5C 437.833,84.5 434.167,84.5 430.5,84.5C 430.941,75.7244 430.441,67.0578 429,58.5C 425.264,54.9884 421.264,54.6551 417,57.5C 416.209,58.745 415.709,60.0783 415.5,61.5C 414.508,68.9818 414.175,76.6484 414.5,84.5C 406.316,84.1743 398.316,84.5076 390.5,85.5C 385.523,87.8487 384.356,91.5153 387,96.5C 388.129,98.1412 389.629,99.1412 391.5,99.5C 398.982,100.492 406.648,100.825 414.5,100.5C 414.175,108.352 414.508,116.018 415.5,123.5C 417.681,129.515 421.681,131.015 427.5,128C 428.582,126.67 429.249,125.17 429.5,123.5C 430.492,116.018 430.825,108.352 430.5,100.5C 434.167,100.5 437.833,100.5 441.5,100.5C 437.363,127.608 423.696,148.274 400.5,162.5C 390.355,159.761 381.355,154.928 373.5,148C 347.051,121.081 341.718,90.4146 357.5,56C 356.551,53.268 355.218,50.768 353.5,48.5C 356.74,42.9229 360.74,37.9229 365.5,33.5C 368.007,36.036 371.007,36.8693 374.5,36C 382.893,29.3038 392.226,24.4705 402.5,21.5 Z"/></g>
<g><path style="opacity:1" fill="#050505" d="M 441.5,84.5 C 445.846,84.3343 450.179,84.501 454.5,85C 455.579,85.956 456.745,86.7894 458,87.5C 460.987,93.3867 459.487,97.3867 453.5,99.5C 445.5,99.5 437.5,99.5 429.5,99.5C 429.5,107.5 429.5,115.5 429.5,123.5C 429.249,125.17 428.582,126.67 427.5,128C 421.681,131.015 417.681,129.515 415.5,123.5C 415.5,115.5 415.5,107.5 415.5,99.5C 407.5,99.5 399.5,99.5 391.5,99.5C 389.629,99.1412 388.129,98.1412 387,96.5C 384.356,91.5153 385.523,87.8487 390.5,85.5C 398.833,85.5 407.167,85.5 415.5,85.5C 415.5,77.5 415.5,69.5 415.5,61.5C 415.709,60.0783 416.209,58.745 417,57.5C 421.264,54.6551 425.264,54.9884 429,58.5C 430.441,67.0578 430.941,75.7244 430.5,84.5C 434.167,84.5 437.833,84.5 441.5,84.5 Z"/></g>
<g><path style="opacity:1" fill="#737170" d="M 415.5,61.5 C 415.5,69.5 415.5,77.5 415.5,85.5C 407.167,85.5 398.833,85.5 390.5,85.5C 398.316,84.5076 406.316,84.1743 414.5,84.5C 414.175,76.6484 414.508,68.9818 415.5,61.5 Z"/></g>
<g><path style="opacity:1" fill="#938f8e" d="M 391.5,99.5 C 399.5,99.5 407.5,99.5 415.5,99.5C 415.5,107.5 415.5,115.5 415.5,123.5C 414.508,116.018 414.175,108.352 414.5,100.5C 406.648,100.825 398.982,100.492 391.5,99.5 Z"/></g>
<g><path style="opacity:1" fill="#6f6e6f" d="M 453.5,99.5 C 449.702,100.483 445.702,100.817 441.5,100.5C 437.833,100.5 434.167,100.5 430.5,100.5C 430.825,108.352 430.492,116.018 429.5,123.5C 429.5,115.5 429.5,107.5 429.5,99.5C 437.5,99.5 445.5,99.5 453.5,99.5 Z"/></g>
<g><path style="opacity:1" fill="#fc7f86" d="M 311.5,124.5 C 332.237,157.106 342.57,192.773 342.5,231.5C 335.162,243.017 327.995,254.684 321,266.5C 307.599,243.422 294.599,220.088 282,196.5C 278.088,191.574 273.755,191.241 269,195.5C 259.366,212.629 249.533,229.629 239.5,246.5C 233.47,237.635 227.636,228.635 222,219.5C 216.885,213.925 212.219,214.258 208,220.5C 202.877,229.915 197.377,239.082 191.5,248C 176.167,248.333 160.833,248.667 145.5,249C 140.167,253.667 140.167,258.333 145.5,263C 162.833,263.667 180.167,263.667 197.5,263C 199.939,262.226 201.773,260.726 203,258.5C 206.93,251.629 211.097,244.962 215.5,238.5C 221.818,247.123 227.651,256.123 233,265.5C 238.115,271.075 242.781,270.742 247,264.5C 256.08,248.004 265.414,231.671 275,215.5C 288.5,239.667 302,263.833 315.5,288C 318.833,290 322.167,290 325.5,288C 330.066,280.352 334.733,272.852 339.5,265.5C 334.499,292.176 325.166,317.176 311.5,340.5C 306.137,333.985 299.47,329.152 291.5,326C 273.298,321.78 254.964,318.113 236.5,315C 226.833,314.333 217.167,314.333 207.5,315C 183.125,319.29 158.792,323.29 134.5,327C 126.333,318.833 118.167,310.667 110,302.5C 95.281,285.732 85.281,266.399 80,244.5C 73.5965,214.159 77.2632,185.159 91,157.5C 92.2437,153.191 91.0771,149.858 87.5,147.5C 91.1667,142.167 94.8333,136.833 98.5,131.5C 100.896,133.212 103.562,133.712 106.5,133C 118.441,121.069 132.441,112.403 148.5,107C 177.494,100.499 204.828,104.832 230.5,120C 244.003,128.828 256.337,139.161 267.5,151C 271.833,154.333 276.167,154.333 280.5,151C 287.469,145.032 294.136,138.699 300.5,132C 304.195,129.49 307.862,126.99 311.5,124.5 Z"/></g>
<g><path style="opacity:1" fill="#fc626d" d="M 242.5,407.5 C 250.858,401.987 258.858,395.987 266.5,389.5C 282.718,393.152 297.218,389.819 310,379.5C 319.349,366.83 319.849,353.83 311.5,340.5C 325.166,317.176 334.499,292.176 339.5,265.5C 342.902,259.031 346.569,252.697 350.5,246.5C 370.825,245.667 391.158,245.167 411.5,245C 416.143,242.928 417.643,239.428 416,234.5C 414.786,232.951 413.286,231.785 411.5,231C 388.457,230.187 365.457,230.354 342.5,231.5C 342.57,192.773 332.237,157.106 311.5,124.5C 318.831,119.164 326.831,114.831 335.5,111.5C 339.356,125.879 345.856,138.879 355,150.5C 385.966,182.702 421.799,189.702 462.5,171.5C 465.583,177.818 467.75,184.484 469,191.5C 475.882,232.986 465.882,269.653 439,301.5C 402.833,338.333 366.667,375.167 330.5,412C 320.575,414.346 310.575,416.179 300.5,417.5C 281.047,414.813 261.713,411.48 242.5,407.5 Z"/></g>
<g><path style="opacity:1" fill="#040202" d="M 342.5,231.5 C 365.457,230.354 388.457,230.187 411.5,231C 413.286,231.785 414.786,232.951 416,234.5C 417.643,239.428 416.143,242.928 411.5,245C 391.158,245.167 370.825,245.667 350.5,246.5C 346.569,252.697 342.902,259.031 339.5,265.5C 334.733,272.852 330.066,280.352 325.5,288C 322.167,290 318.833,290 315.5,288C 302,263.833 288.5,239.667 275,215.5C 265.414,231.671 256.08,248.004 247,264.5C 242.781,270.742 238.115,271.075 233,265.5C 227.651,256.123 221.818,247.123 215.5,238.5C 211.097,244.962 206.93,251.629 203,258.5C 201.773,260.726 199.939,262.226 197.5,263C 180.167,263.667 162.833,263.667 145.5,263C 140.167,258.333 140.167,253.667 145.5,249C 160.833,248.667 176.167,248.333 191.5,248C 197.377,239.082 202.877,229.915 208,220.5C 212.219,214.258 216.885,213.925 222,219.5C 227.636,228.635 233.47,237.635 239.5,246.5C 249.533,229.629 259.366,212.629 269,195.5C 273.755,191.241 278.088,191.574 282,196.5C 294.599,220.088 307.599,243.422 321,266.5C 327.995,254.684 335.162,243.017 342.5,231.5 Z"/></g>
<g><path style="opacity:1" fill="#fdd0a2" d="M 301.5,355.5 C 298.299,358.937 294.299,361.104 289.5,362C 285.833,362.167 282.167,362.333 278.5,362.5C 259.449,360.853 240.449,359.02 221.5,357C 213.279,360.395 209.279,366.561 209.5,375.5C 198.023,389.567 199.023,402.734 212.5,415C 216.814,417.66 221.481,419.327 226.5,420C 244.872,423.054 263.205,426.387 281.5,430C 293.177,431.901 304.844,431.901 316.5,430C 349.563,423.656 382.563,416.989 415.5,410C 421.693,409.016 427.693,409.682 433.5,412C 435.79,413.777 437.457,415.944 438.5,418.5C 438.141,420.371 437.141,421.871 435.5,423C 432.661,424.92 429.661,426.587 426.5,428C 379.5,443 332.5,458 285.5,473C 266.192,479.901 246.525,481.235 226.5,477C 179.235,463.851 131.902,451.017 84.5,438.5C 84.1752,409.093 84.5085,379.76 85.5,350.5C 124.193,344.163 162.86,337.663 201.5,331C 212.794,329.508 224.128,329.174 235.5,330C 251.57,332.614 267.57,335.614 283.5,339C 292.283,341.622 298.283,347.122 301.5,355.5 Z"/></g>
<g><path style="opacity:1" fill="#99e6fb" d="M 68.5,449.5 C 50.5,449.5 32.5,449.5 14.5,449.5C 14.5,412.833 14.5,376.167 14.5,339.5C 32.5,339.5 50.5,339.5 68.5,339.5C 68.5,376.167 68.5,412.833 68.5,449.5 Z"/></g>
<g><path style="opacity:1" fill="#897056" d="M 85.5,350.5 C 84.5085,379.76 84.1752,409.093 84.5,438.5C 84.5,442.5 84.5,446.5 84.5,450.5C 83.8334,434.003 83.5001,417.337 83.5,400.5C 83.5005,383.486 84.1672,366.82 85.5,350.5 Z"/></g>
<g><path style="opacity:1" fill="#fcba83" d="M 301.5,355.5 C 303.477,366.959 298.477,373.459 286.5,375C 282.167,375.667 277.833,375.667 273.5,375C 257.333,373.2 241.166,371.367 225,369.5C 218.987,369.447 213.82,371.447 209.5,375.5C 209.279,366.561 213.279,360.395 221.5,357C 240.449,359.02 259.449,360.853 278.5,362.5C 282.167,362.333 285.833,362.167 289.5,362C 294.299,361.104 298.299,358.937 301.5,355.5 Z"/></g>
<g><path style="opacity:1" fill="#f87d84" d="M 266.5,389.5 C 258.858,395.987 250.858,401.987 242.5,407.5C 235.352,406.642 228.352,405.142 221.5,403C 218.41,400.984 216.743,398.151 216.5,394.5C 217.024,387.641 220.691,384.307 227.5,384.5C 240.472,386.413 253.472,388.08 266.5,389.5 Z"/></g>
<g><path style="opacity:1" fill="#fbb983" d="M 438.5,418.5 C 439.95,428.414 435.95,435.581 426.5,440C 371.133,458.345 315.466,475.678 259.5,492C 250.454,492.807 241.454,492.474 232.5,491C 183.032,477.785 133.699,464.285 84.5,450.5C 84.5,446.5 84.5,442.5 84.5,438.5C 131.902,451.017 179.235,463.851 226.5,477C 246.525,481.235 266.192,479.901 285.5,473C 332.5,458 379.5,443 426.5,428C 429.661,426.587 432.661,424.92 435.5,423C 437.141,421.871 438.141,420.371 438.5,418.5 Z"/></g>
<g><path style="opacity:1" fill="#61d9f8" d="M 14.5,449.5 C 32.5,449.5 50.5,449.5 68.5,449.5C 68.5,453.833 68.5,458.167 68.5,462.5C 50.5,462.5 32.5,462.5 14.5,462.5C 14.5,458.167 14.5,453.833 14.5,449.5 Z"/></g>
</svg>
