<?xml version="1.0" encoding="UTF-8"?>
<!DOCTYPE svg PUBLIC "-//W3C//DTD SVG 1.1//EN" "http://www.w3.org/Graphics/SVG/1.1/DTD/svg11.dtd">
<svg xmlns="http://www.w3.org/2000/svg" version="1.1" width="512px" height="512px" style="shape-rendering:geometricPrecision; text-rendering:geometricPrecision; image-rendering:optimizeQuality; fill-rule:evenodd; clip-rule:evenodd" xmlns:xlink="http://www.w3.org/1999/xlink">
<g><path style="opacity:0.999" fill="#e1dbd5" d="M 57.5,-0.5 C 104.167,-0.5 150.833,-0.5 197.5,-0.5C 201.811,1.6467 204.978,4.98004 207,9.5C 207.5,24.8297 207.667,40.163 207.5,55.5C 207.5,56.1667 207.167,56.5 206.5,56.5C 153.669,55.5011 100.669,55.1677 47.5,55.5C 47.3334,40.163 47.5001,24.8297 48,9.5C 50.0223,4.98004 53.189,1.6467 57.5,-0.5 Z"/></g>
<g><path style="opacity:0.998" fill="#fee9d1" d="M 307.5,-0.5 C 332.833,-0.5 358.167,-0.5 383.5,-0.5C 383.586,7.64586 382.586,15.6459 380.5,23.5C 354.833,23.5 329.167,23.5 303.5,23.5C 303.334,16.825 303.5,10.1583 304,3.5C 304.69,1.64977 305.856,0.316435 307.5,-0.5 Z"/></g>
<g><path style="opacity:1" fill="#faddc3" d="M 383.5,-0.5 C 392.833,-0.5 402.167,-0.5 411.5,-0.5C 413.144,0.316435 414.31,1.64977 415,3.5C 415.5,10.1583 415.666,16.825 415.5,23.5C 403.833,23.5 392.167,23.5 380.5,23.5C 382.586,15.6459 383.586,7.64586 383.5,-0.5 Z"/></g>
<g><path style="opacity:1" fill="#f4d3b7" d="M 303.5,23.5 C 329.167,23.5 354.833,23.5 380.5,23.5C 392.167,23.5 403.833,23.5 415.5,23.5C 415.5,28.8333 415.5,34.1667 415.5,39.5C 401.5,39.5 387.5,39.5 373.5,39.5C 350.167,39.5 326.833,39.5 303.5,39.5C 303.5,34.1667 303.5,28.8333 303.5,23.5 Z"/></g>
<g><path style="opacity:1" fill="#fee9d1" d="M 303.5,39.5 C 326.833,39.5 350.167,39.5 373.5,39.5C 369.318,48.5242 363.651,56.5242 356.5,63.5C 338.757,63.181 321.09,63.5143 303.5,64.5C 303.5,56.1667 303.5,47.8333 303.5,39.5 Z"/></g>
<g><path style="opacity:1" fill="#faddc3" d="M 373.5,39.5 C 387.5,39.5 401.5,39.5 415.5,39.5C 415.5,47.8333 415.5,56.1667 415.5,64.5C 395.879,63.5242 376.213,63.1909 356.5,63.5C 363.651,56.5242 369.318,48.5242 373.5,39.5 Z"/></g>
<g><path style="opacity:0.998" fill="#eeeae7" d="M 47.5,55.5 C 100.669,55.1677 153.669,55.5011 206.5,56.5C 206.5,56.8333 206.5,57.1667 206.5,57.5C 190.833,86.1667 175.167,114.833 159.5,143.5C 106.167,143.5 52.8333,143.5 -0.5,143.5C -0.5,142.833 -0.5,142.167 -0.5,141.5C 15.5,112.833 31.5,84.1667 47.5,55.5 Z"/></g>
<g><path style="opacity:0.998" fill="#d3cbc6" d="M 207.5,55.5 C 224.146,84.115 240.313,113.115 256,142.5C 256.5,178.498 256.667,214.498 256.5,250.5C 252.368,262.896 248.035,275.229 243.5,287.5C 244.62,293.421 248.287,296.587 254.5,297C 255.381,297.708 256.047,298.542 256.5,299.5C 256.5,306.833 256.5,314.167 256.5,321.5C 255.641,324.452 253.641,326.285 250.5,327C 247.833,327.667 245.167,327.667 242.5,327C 237.442,322.18 232.609,322.347 228,327.5C 221.238,344.64 214.404,361.64 207.5,378.5C 207.833,271.332 207.499,164.332 206.5,57.5C 206.5,57.1667 206.5,56.8333 206.5,56.5C 207.167,56.5 207.5,56.1667 207.5,55.5 Z"/></g>
<g><path style="opacity:1" fill="#c6bab2" d="M 206.5,57.5 C 207.499,164.332 207.833,271.332 207.5,378.5C 205.075,385.274 202.742,392.108 200.5,399C 202.204,403.052 204.371,406.885 207,410.5C 208.129,422.737 202.629,429.904 190.5,432C 188.714,432.785 187.214,433.951 186,435.5C 182.667,444.167 179.333,452.833 176,461.5C 174.93,465.142 175.764,468.142 178.5,470.5C 181.665,474.498 185.332,477.998 189.5,481C 195.679,485.03 201.679,489.196 207.5,493.5C 207.5,499.5 207.5,505.5 207.5,511.5C 191.5,511.5 175.5,511.5 159.5,511.5C 159.5,485.167 159.5,458.833 159.5,432.5C 159.5,432.167 159.5,431.833 159.5,431.5C 159.5,368.5 159.5,305.5 159.5,242.5C 159.5,230.833 159.5,219.167 159.5,207.5C 159.5,186.167 159.5,164.833 159.5,143.5C 175.167,114.833 190.833,86.1667 206.5,57.5 Z"/></g>
<g><path style="opacity:0.996" fill="#f09b73" d="M 356.5,63.5 C 376.213,63.1909 395.879,63.5242 415.5,64.5C 428.669,69.1557 433.836,78.489 431,92.5C 429.503,96.1649 427.503,99.4983 425,102.5C 417.669,107.498 412.503,114.164 409.5,122.5C 410.098,123.795 410.598,125.128 411,126.5C 430.804,141.774 442.638,161.774 446.5,186.5C 426.615,229.383 396.281,262.717 355.5,286.5C 350.353,285.527 346.853,282.527 345,277.5C 343.909,271.903 344.576,266.57 347,261.5C 350,258.833 353,256.167 356,253.5C 356.167,252.167 356.333,250.833 356.5,249.5C 352.368,236.273 347.534,223.273 342,210.5C 341.097,209.299 339.931,208.465 338.5,208C 319.503,207.5 300.503,207.333 281.5,207.5C 277.017,207.075 273.683,208.741 271.5,212.5C 268.155,176.536 280.655,147.536 309,125.5C 309.841,121.88 309.174,118.546 307,115.5C 299.473,108.755 293.14,101.088 288,92.5C 285.164,78.489 290.331,69.1557 303.5,64.5C 321.09,63.5143 338.757,63.181 356.5,63.5 Z"/></g>
<g><path style="opacity:1" fill="#fefefe" d="M 58.5,79.5 C 74.6784,79.1677 81.1784,86.8344 78,102.5C 72.0392,111.283 64.2058,113.449 54.5,109C 44.0827,97.5007 45.4161,87.6674 58.5,79.5 Z"/></g>
<g><path style="opacity:1" fill="#fefefe" d="M 84.5,111.5 C 95.1666,112.003 97.8333,116.836 92.5,126C 83.4201,129.215 79.2534,126.048 80,116.5C 81.025,114.313 82.525,112.646 84.5,111.5 Z"/></g>
<g><path style="opacity:1" fill="#f1baa4" d="M 350.5,127.5 C 369.797,127.293 377.631,136.626 374,155.5C 369.051,165.058 361.217,168.891 350.5,167C 337.813,161.972 333.313,152.805 337,139.5C 339.85,133.514 344.35,129.514 350.5,127.5 Z"/></g>
<g><path style="opacity:1" fill="#e1dbd4" d="M -0.5,143.5 C 52.8333,143.5 106.167,143.5 159.5,143.5C 159.5,164.833 159.5,186.167 159.5,207.5C 106.167,207.5 52.8333,207.5 -0.5,207.5C -0.5,186.167 -0.5,164.833 -0.5,143.5 Z"/></g>
<g><path style="opacity:1" fill="#f1baa3" d="M 383.5,167.5 C 390.663,166.331 395.829,168.998 399,175.5C 399.833,186.667 394.667,191.833 383.5,191C 372.874,183.132 372.874,175.299 383.5,167.5 Z"/></g>
<g><path style="opacity:1" fill="#e58b6b" d="M 446.5,186.5 C 447.499,230.664 447.832,274.997 447.5,319.5C 426.5,319.5 405.5,319.5 384.5,319.5C 380.957,309.41 377.124,299.41 373,289.5C 371.257,287.129 368.923,285.795 366,285.5C 362.542,286.286 359.042,286.62 355.5,286.5C 396.281,262.717 426.615,229.383 446.5,186.5 Z"/></g>
<g><path style="opacity:1" fill="#ea6049" d="M -0.5,207.5 C 52.8333,207.5 106.167,207.5 159.5,207.5C 159.5,219.167 159.5,230.833 159.5,242.5C 149.406,265.907 135.74,286.907 118.5,305.5C 109.365,288.749 98.3646,273.249 85.5,259C 83.8839,258.385 82.5505,257.385 81.5,256C 80.1667,255.333 78.8333,255.333 77.5,256C 56.6827,276.435 41.5161,300.601 32,328.5C 30.8806,338.159 32.0472,347.493 35.5,356.5C 36.4408,358.05 37.1075,359.716 37.5,361.5C 25.0006,365.467 12.334,368.8 -0.5,371.5C -0.5,316.833 -0.5,262.167 -0.5,207.5 Z"/></g>
<g><path style="opacity:0.999" fill="#f7e768" d="M 281.5,207.5 C 283.761,208.59 285.594,210.256 287,212.5C 300.52,248.198 314.02,283.865 327.5,319.5C 320.045,321.076 317.878,325.41 321,332.5C 321.903,333.701 323.069,334.535 324.5,335C 328.486,335.499 332.486,335.666 336.5,335.5C 337.299,344.151 337.966,352.817 338.5,361.5C 329.478,378.527 318.478,394.194 305.5,408.5C 296.646,410.43 290.979,415.764 288.5,424.5C 282.345,429.411 276.011,434.077 269.5,438.5C 263.146,425.331 252.813,420.831 238.5,425C 224.061,432.816 220.061,444.316 226.5,459.5C 211.122,465.293 195.122,468.96 178.5,470.5C 175.764,468.142 174.93,465.142 176,461.5C 179.333,452.833 182.667,444.167 186,435.5C 187.214,433.951 188.714,432.785 190.5,432C 202.629,429.904 208.129,422.737 207,410.5C 204.371,406.885 202.204,403.052 200.5,399C 202.742,392.108 205.075,385.274 207.5,378.5C 214.404,361.64 221.238,344.64 228,327.5C 232.609,322.347 237.442,322.18 242.5,327C 245.167,327.667 247.833,327.667 250.5,327C 253.641,326.285 255.641,324.452 256.5,321.5C 260.709,317.027 262.209,311.693 261,305.5C 260.208,302.894 258.708,300.894 256.5,299.5C 256.047,298.542 255.381,297.708 254.5,297C 248.287,296.587 244.62,293.421 243.5,287.5C 248.035,275.229 252.368,262.896 256.5,250.5C 261.481,237.904 266.481,225.237 271.5,212.5C 273.683,208.741 277.017,207.075 281.5,207.5 Z"/></g>
<g><path style="opacity:1" fill="#eed510" d="M 281.5,207.5 C 300.503,207.333 319.503,207.5 338.5,208C 339.931,208.465 341.097,209.299 342,210.5C 347.534,223.273 352.368,236.273 356.5,249.5C 356.333,250.833 356.167,252.167 356,253.5C 353,256.167 350,258.833 347,261.5C 344.576,266.57 343.909,271.903 345,277.5C 346.853,282.527 350.353,285.527 355.5,286.5C 359.042,286.62 362.542,286.286 366,285.5C 368.923,285.795 371.257,287.129 373,289.5C 377.124,299.41 380.957,309.41 384.5,319.5C 365.5,319.5 346.5,319.5 327.5,319.5C 314.02,283.865 300.52,248.198 287,212.5C 285.594,210.256 283.761,208.59 281.5,207.5 Z"/></g>
<g><path style="opacity:1" fill="#de513e" d="M 159.5,242.5 C 159.5,305.5 159.5,368.5 159.5,431.5C 106.167,431.5 52.8333,431.5 -0.5,431.5C -0.5,411.5 -0.5,391.5 -0.5,371.5C 12.334,368.8 25.0006,365.467 37.5,361.5C 50.1906,378.464 67.1906,384.964 88.5,381C 116.025,374.157 128.858,356.657 127,328.5C 126.024,323.388 124.191,318.722 121.5,314.5C 120.302,311.574 119.302,308.574 118.5,305.5C 135.74,286.907 149.406,265.907 159.5,242.5 Z"/></g>
<g><path style="opacity:1" fill="#fefefe" d="M 118.5,305.5 C 119.302,308.574 120.302,311.574 121.5,314.5C 111.613,337.648 94.2792,352.148 69.5,358C 57.9888,360.3 46.6554,359.8 35.5,356.5C 32.0472,347.493 30.8806,338.159 32,328.5C 41.5161,300.601 56.6827,276.435 77.5,256C 78.8333,255.333 80.1667,255.333 81.5,256C 82.5505,257.385 83.8839,258.385 85.5,259C 98.3646,273.249 109.365,288.749 118.5,305.5 Z"/></g>
<g><path style="opacity:1" fill="#fbf4bc" d="M 274.5,263.5 C 290.689,263.177 297.189,270.844 294,286.5C 288.109,295.573 280.276,297.74 270.5,293C 260.083,281.501 261.416,271.667 274.5,263.5 Z"/></g>
<g><path style="opacity:1" fill="#fbf4ba" d="M 292.5,303.5 C 298.925,302.534 302.592,305.201 303.5,311.5C 303.113,316.72 300.279,319.387 295,319.5C 288.894,318.296 286.561,314.629 288,308.5C 289.025,306.313 290.525,304.646 292.5,303.5 Z"/></g>
<g><path style="opacity:1" fill="#efeae7" d="M 121.5,314.5 C 124.191,318.722 126.024,323.388 127,328.5C 128.858,356.657 116.025,374.157 88.5,381C 67.1906,384.964 50.1906,378.464 37.5,361.5C 37.1075,359.716 36.4408,358.05 35.5,356.5C 46.6554,359.8 57.9888,360.3 69.5,358C 94.2792,352.148 111.613,337.648 121.5,314.5 Z"/></g>
<g><path style="opacity:0.998" fill="#49ad4d" d="M 327.5,319.5 C 346.5,319.5 365.5,319.5 384.5,319.5C 405.5,319.5 426.5,319.5 447.5,319.5C 467.503,319.333 487.503,319.5 507.5,320C 509.35,320.69 510.684,321.856 511.5,323.5C 511.5,326.167 511.5,328.833 511.5,331.5C 510.684,333.144 509.35,334.31 507.5,335C 503.514,335.499 499.514,335.666 495.5,335.5C 442.5,335.5 389.5,335.5 336.5,335.5C 332.486,335.666 328.486,335.499 324.5,335C 323.069,334.535 321.903,333.701 321,332.5C 317.878,325.41 320.045,321.076 327.5,319.5 Z"/></g>
<g><path style="opacity:1" fill="#81c783" d="M 336.5,335.5 C 389.5,335.5 442.5,335.5 495.5,335.5C 494.337,347.653 493.004,359.653 491.5,371.5C 491.607,369.621 491.107,369.288 490,370.5C 458.393,425.215 410.893,454.882 347.5,459.5C 344.62,426.818 341.62,394.152 338.5,361.5C 337.966,352.817 337.299,344.151 336.5,335.5 Z"/></g>
<g><path style="opacity:1" fill="#eed612" d="M 310.5,368.5 C 292.545,365.779 282.212,373.445 279.5,391.5C 279.753,393.858 280.086,396.192 280.5,398.5C 267.275,393.396 261.775,383.73 264,369.5C 268.944,355.606 278.778,349.772 293.5,352C 302.315,354.316 307.982,359.816 310.5,368.5 Z"/></g>
<g><path style="opacity:1" fill="#c6e5c7" d="M 370.5,351.5 C 388.113,351.593 394.28,359.926 389,376.5C 382.705,383.914 375.205,385.414 366.5,381C 359.086,374.705 357.586,367.205 362,358.5C 364.441,355.546 367.275,353.213 370.5,351.5 Z"/></g>
<g><path style="opacity:1" fill="#f5e13d" d="M 338.5,361.5 C 341.62,394.152 344.62,426.818 347.5,459.5C 348.139,470.868 349.139,482.201 350.5,493.5C 334.978,501.784 318.645,507.451 301.5,510.5C 301.5,510.833 301.5,511.167 301.5,511.5C 288.5,511.5 275.5,511.5 262.5,511.5C 260.735,510.539 258.735,510.205 256.5,510.5C 239.494,507.053 223.161,501.386 207.5,493.5C 201.679,489.196 195.679,485.03 189.5,481C 185.332,477.998 181.665,474.498 178.5,470.5C 195.122,468.96 211.122,465.293 226.5,459.5C 229.554,463.88 233.554,467.214 238.5,469.5C 239.298,469.043 239.631,468.376 239.5,467.5C 240.249,468.531 240.915,469.698 241.5,471C 259.218,472.613 269.218,464.613 271.5,447C 272.586,442.403 270.919,439.903 266.5,439.5C 267.791,439.737 268.791,439.404 269.5,438.5C 276.011,434.077 282.345,429.411 288.5,424.5C 285.922,437.676 290.588,447.343 302.5,453.5C 303.298,453.043 303.631,452.376 303.5,451.5C 304.249,452.531 304.915,453.698 305.5,455C 323.218,456.613 333.218,448.613 335.5,431C 336.586,426.403 334.919,423.903 330.5,423.5C 331.675,423.719 332.675,423.386 333.5,422.5C 327.62,410.893 318.286,406.227 305.5,408.5C 318.478,394.194 329.478,378.527 338.5,361.5 Z"/></g>
<g><path style="opacity:1" fill="#f5e13d" d="M 310.5,368.5 C 313.087,386.923 305.087,397.256 286.5,399.5C 284.41,399.427 282.41,399.094 280.5,398.5C 280.086,396.192 279.753,393.858 279.5,391.5C 282.212,373.445 292.545,365.779 310.5,368.5 Z"/></g>
<g><path style="opacity:1" fill="#66bb6a" d="M 491.5,371.5 C 487.938,415.85 484.105,460.183 480,504.5C 479.47,507.585 477.97,509.918 475.5,511.5C 435.833,511.5 396.167,511.5 356.5,511.5C 354.14,510.135 352.473,508.135 351.5,505.5C 350.838,501.534 350.505,497.534 350.5,493.5C 349.139,482.201 348.139,470.868 347.5,459.5C 410.893,454.882 458.393,425.215 490,370.5C 491.107,369.288 491.607,369.621 491.5,371.5 Z"/></g>
<g><path style="opacity:1" fill="#c5e4c6" d="M 396.5,383.5 C 404.658,382.823 408.158,386.49 407,394.5C 404.774,398.861 401.274,400.361 396.5,399C 392.139,396.774 390.639,393.274 392,388.5C 393.025,386.313 394.525,384.646 396.5,383.5 Z"/></g>
<g><path style="opacity:1" fill="#eed611" d="M 330.5,423.5 C 312.698,424.302 303.698,433.635 303.5,451.5C 303.631,452.376 303.298,453.043 302.5,453.5C 290.588,447.343 285.922,437.676 288.5,424.5C 290.979,415.764 296.646,410.43 305.5,408.5C 318.286,406.227 327.62,410.893 333.5,422.5C 332.675,423.386 331.675,423.719 330.5,423.5 Z"/></g>
<g><path style="opacity:1" fill="#eed612" d="M 269.5,438.5 C 268.791,439.404 267.791,439.737 266.5,439.5C 248.698,440.302 239.698,449.635 239.5,467.5C 239.631,468.376 239.298,469.043 238.5,469.5C 233.554,467.214 229.554,463.88 226.5,459.5C 220.061,444.316 224.061,432.816 238.5,425C 252.813,420.831 263.146,425.331 269.5,438.5 Z"/></g>
<g><path style="opacity:1" fill="#f7e767" d="M 330.5,423.5 C 334.919,423.903 336.586,426.403 335.5,431C 333.218,448.613 323.218,456.613 305.5,455C 304.915,453.698 304.249,452.531 303.5,451.5C 303.698,433.635 312.698,424.302 330.5,423.5 Z"/></g>
<g><path style="opacity:1" fill="#e1dad4" d="M -0.5,431.5 C 52.8333,431.5 106.167,431.5 159.5,431.5C 159.5,431.833 159.5,432.167 159.5,432.5C 147.09,453.086 129.423,467.586 106.5,476C 71.9256,488.282 36.2589,494.782 -0.5,495.5C -0.5,474.167 -0.5,452.833 -0.5,431.5 Z"/></g>
<g><path style="opacity:1" fill="#d4ccc7" d="M 159.5,432.5 C 159.5,458.833 159.5,485.167 159.5,511.5C 109.5,511.5 59.5,511.5 9.5,511.5C 5.16667,509.167 1.83333,505.833 -0.5,501.5C -0.5,499.5 -0.5,497.5 -0.5,495.5C 36.2589,494.782 71.9256,488.282 106.5,476C 129.423,467.586 147.09,453.086 159.5,432.5 Z"/></g>
<g><path style="opacity:1" fill="#f7e767" d="M 266.5,439.5 C 270.919,439.903 272.586,442.403 271.5,447C 269.218,464.613 259.218,472.613 241.5,471C 240.915,469.698 240.249,468.531 239.5,467.5C 239.698,449.635 248.698,440.302 266.5,439.5 Z"/></g>
<g><path style="opacity:1" fill="#d4ccc6" d="M 207.5,493.5 C 223.161,501.386 239.494,507.053 256.5,510.5C 256.5,510.833 256.5,511.167 256.5,511.5C 240.167,511.5 223.833,511.5 207.5,511.5C 207.5,505.5 207.5,499.5 207.5,493.5 Z"/></g>
<g><path style="opacity:1" fill="#edd413" d="M 350.5,493.5 C 350.505,497.534 350.838,501.534 351.5,505.5C 334.919,507.989 318.253,509.656 301.5,510.5C 318.645,507.451 334.978,501.784 350.5,493.5 Z"/></g>
<g><path style="opacity:1" fill="#e48d69" d="M 351.5,505.5 C 352.473,508.135 354.14,510.135 356.5,511.5C 338.167,511.5 319.833,511.5 301.5,511.5C 301.5,511.167 301.5,510.833 301.5,510.5C 318.253,509.656 334.919,507.989 351.5,505.5 Z"/></g>
</svg>
